<?xml version="1.0" encoding="UTF-8"?><svg id="Layer_2" xmlns="http://www.w3.org/2000/svg" viewBox="0 0 618.56 283.47"><defs><style>.cls-1{stroke-dasharray:0 0 0 0 .11 2.21 .11 2.21;}.cls-1,.cls-2,.cls-3,.cls-4,.cls-5,.cls-6,.cls-7,.cls-8,.cls-9{stroke-miterlimit:10;}.cls-1,.cls-2,.cls-3,.cls-4,.cls-5,.cls-7,.cls-8,.cls-9{fill:none;stroke:#898989;stroke-linecap:round;stroke-width:1.11px;}.cls-10,.cls-11,.cls-12,.cls-13{fill:#515251;}.cls-10,.cls-12{font-size:15.73px;}.cls-10,.cls-13,.cls-14{font-family:SofiaPro-Bold, 'Sofia Pro';}.cls-15{letter-spacing:-.08em;}.cls-3{stroke-dasharray:0 0 0 0 .13 2.64 .13 2.64;}.cls-16{letter-spacing:0em;}.cls-17{letter-spacing:-.02em;}.cls-4{stroke-dasharray:0 0 0 0 0 0 .13 2.64 .13 2.64 .13 2.64;}.cls-18{letter-spacing:0em;}.cls-19{letter-spacing:-.03em;}.cls-20{letter-spacing:0em;}.cls-21{letter-spacing:0em;}.cls-22{fill:#f47c64;}.cls-23{fill:#fcb31f;}.cls-24{fill:#d1d1d1;}.cls-25{fill:#28c2e5;}.cls-26{fill:#4ab862;}.cls-27{letter-spacing:0em;}.cls-12{font-family:SofiaProRegular, 'Sofia Pro';}.cls-5{stroke-dasharray:0 0 0 0 0 0 .11 2.21 .11 2.21 .11 2.21;}.cls-28{letter-spacing:-.01em;}.cls-29{letter-spacing:-.01em;}.cls-30{letter-spacing:-.01em;}.cls-31{letter-spacing:-.05em;}.cls-32{letter-spacing:0em;}.cls-33{letter-spacing:0em;}.cls-6{stroke:#d1d1d1;stroke-width:2.75px;}.cls-6,.cls-14{fill:#fff;}.cls-7{stroke-dasharray:0 0 0 0 .11 2.22 .11 2.22;}.cls-34{letter-spacing:-.04em;}.cls-35{letter-spacing:-.08em;}.cls-8{stroke-dasharray:0 0 0 0 0 0 .11 2.22 .11 2.22 .11 2.22;}.cls-13,.cls-14{font-size:8.23px;}.cls-9{stroke-dasharray:0 0 0 0 0 0 .11 2.22 .11 2.22 .11 2.22;}.cls-36{letter-spacing:-.03em;}.cls-37{letter-spacing:0em;}.cls-38{letter-spacing:-.01em;}.cls-39{letter-spacing:-.06em;}.cls-40{letter-spacing:-.01em;}.cls-41{letter-spacing:0em;}.cls-42{letter-spacing:0em;}.cls-43{letter-spacing:0em;}.cls-44{letter-spacing:0em;}.cls-45{letter-spacing:0em;}.cls-46{letter-spacing:0em;}.cls-47{letter-spacing:-.03em;}.cls-48{letter-spacing:-.01em;}.cls-49{letter-spacing:-.03em;}.cls-50{letter-spacing:-.03em;}</style></defs><g id="lottie_designs"><g><polygon class="cls-25" points="178.92 117.05 91.39 117.05 135.15 37.61 178.92 117.05"/><text class="cls-14" transform="translate(125 96.52)"><tspan x="0" y="0">HIGH </tspan><tspan x="-19.93" y="7.31">PER</tspan><tspan class="cls-40" x="-4.88" y="7.31">F</tspan><tspan x="-.54" y="7.31">ORMANCE </tspan><tspan x="-7.35" y="14.63">CU</tspan><tspan class="cls-15" x="4.01" y="14.63">L</tspan><tspan x="7.5" y="14.63">TURE</tspan></text><polygon class="cls-26" points="209.99 173.45 60.31 173.45 90.1 119.39 180.21 119.39 209.99 173.45"/><text class="cls-14" transform="translate(91.25 150.38)"><tspan class="cls-27" x="0" y="0">C</tspan><tspan class="cls-31" x="5.69" y="0">Y</tspan><tspan x="10.81" y="0">CE</tspan><tspan class="cls-47" x="21.3" y="0">L</tspan><tspan x="25.18" y="0" xml:space="preserve"> O</tspan><tspan class="cls-49" x="33.6" y="0">F</tspan><tspan x="37.84" y="0" xml:space="preserve"> LEADERSHI</tspan><tspan class="cls-19" x="82.96" y="0">P</tspan></text><polygon class="cls-23" points="241.06 229.84 29.25 229.84 59.03 175.79 211.28 175.79 241.06 229.84"/><text class="cls-14" transform="translate(57.47 206.25)"><tspan x="0" y="0">SI</tspan><tspan class="cls-33" x="7.31" y="0">X</tspan><tspan x="12.61" y="0" xml:space="preserve"> PR</tspan><tspan class="cls-30" x="24.89" y="0">A</tspan><tspan x="30.17" y="0">CTICES O</tspan><tspan class="cls-49" x="66.74" y="0">F</tspan><tspan x="70.99" y="0" xml:space="preserve"> HIGH PER</tspan><tspan class="cls-40" x="110.25" y="0">F</tspan><tspan x="114.6" y="0">ORMANCE</tspan></text><polygon class="cls-22" points="270.31 282.92 0 282.92 27.95 232.18 242.35 232.18 270.31 282.92"/><text class="cls-14" transform="translate(68.54 260.59)"><tspan x="0" y="0">D</tspan><tspan class="cls-16" x="5.86" y="0">O</tspan><tspan x="12.29" y="0">MAINS O</tspan><tspan class="cls-49" x="46.62" y="0">F</tspan><tspan x="50.87" y="0" xml:space="preserve"> HUMAN EXPERIENCE</tspan></text><g><line class="cls-2" x1="276.57" y1="282.92" x2="276.62" y2="282.92"/><line class="cls-3" x1="279.26" y1="282.92" x2="283.48" y2="282.92"/><line class="cls-4" x1="284.79" y1="282.92" x2="291.78" y2="282.92"/><polyline class="cls-2" points="293.1 282.92 293.16 282.92 293.16 282.86"/><line class="cls-7" x1="293.16" y1="280.64" x2="293.16" y2="277.09"/><line class="cls-8" x1="293.16" y1="275.98" x2="293.16" y2="39.2"/><polyline class="cls-2" points="293.16 38.09 293.16 38.03 293.1 38.03"/><line class="cls-1" x1="290.89" y1="38.03" x2="287.36" y2="38.03"/><line class="cls-5" x1="286.26" y1="38.03" x2="141.43" y2="38.03"/><line class="cls-2" x1="140.32" y1="38.03" x2="140.27" y2="38.03"/></g><line class="cls-9" x1="183.8" y1="117.05" x2="293.16" y2="117.05"/><line class="cls-9" x1="216.71" y1="173.45" x2="293.16" y2="173.45"/><line class="cls-9" x1="246.32" y1="229.84" x2="293.16" y2="229.84"/><text class="cls-13" transform="translate(297.89 80.32)"><tspan class="cls-16" x="0" y="0">C</tspan><tspan x="5.74" y="0">ultu</tspan><tspan class="cls-30" x="20.44" y="0">r</tspan><tspan x="23.73" y="0">e</tspan></text><text class="cls-13" transform="translate(297.89 150.8)"><tspan class="cls-35" x="0" y="0">T</tspan><tspan x="3.91" y="0">eam/</tspan><tspan class="cls-34" x="24.75" y="0">F</tspan><tspan x="28.87" y="0">amil</tspan><tspan class="cls-44" x="45.42" y="0">y</tspan></text><text class="cls-13" transform="translate(297.89 206.54)"><tspan class="cls-17" x="0" y="0">R</tspan><tspan x="5.04" y="0">elationship</tspan></text><text class="cls-13" transform="translate(297.89 260.7)"><tspan class="cls-41" x="0" y="0">I</tspan><tspan x="2.49" y="0">ndividual</tspan></text></g><text class="cls-10" transform="translate(96.43 13.28)"><tspan x="0" y="0">Ou</tspan><tspan class="cls-50" x="21.5" y="0">r</tspan><tspan x="27.57" y="0"> </tspan><tspan class="cls-18" x="31.31" y="0">M</tspan><tspan x="45.78" y="0">odel</tspan></text><text class="cls-10" transform="translate(370.56 13.28)"><tspan class="cls-37" x="0" y="0">O</tspan><tspan class="cls-28" x="12.28" y="0">r</tspan><tspan class="cls-21" x="18.57" y="0">gani</tspan><tspan class="cls-32" x="51.17" y="0">z</tspan><tspan x="59.03" y="0">ational Ou</tspan><tspan class="cls-20" x="135.72" y="0">tc</tspan><tspan class="cls-43" x="149.25" y="0">omes</tspan></text><g><g><text class="cls-12" transform="translate(383.56 58.69)"><tspan x="0" y="0">Ability </tspan><tspan class="cls-45" x="47.52" y="0">t</tspan><tspan x="52.41" y="0">o </tspan><tspan class="cls-38" x="65.48" y="0">r</tspan><tspan x="71.34" y="0">apidly ada</tspan><tspan class="cls-20" x="148.07" y="0">p</tspan><tspan x="157.48" y="0">t and </tspan><tspan class="cls-38" x="0" y="15.73">r</tspan><tspan x="5.87" y="15.73">espond </tspan><tspan class="cls-45" x="62.73" y="15.73">t</tspan><tspan x="67.62" y="15.73">o </tspan><tspan class="cls-48" x="80.69" y="15.73">e</tspan><tspan class="cls-29" x="89.26" y="15.73">v</tspan><tspan x="96.99" y="15.73">e</tspan><tspan class="cls-39" x="105.77" y="15.73">r</tspan><tspan x="110.96" y="15.73">-changing </tspan><tspan x="0" y="31.45">challenges</tspan></text><circle class="cls-11" cx="373.56" cy="53.2" r="3"/></g><g><text class="cls-12" transform="translate(383.56 116.93)"><tspan x="0" y="0">Ability </tspan><tspan class="cls-45" x="47.52" y="0">t</tspan><tspan x="52.41" y="0">o build functional trust </tspan><tspan class="cls-45" x="0" y="15.73">f</tspan><tspan x="5.02" y="15.73">ast</tspan></text><circle class="cls-11" cx="373.56" cy="110.2" r="3"/></g><g><text class="cls-12" transform="translate(383.56 162.18)"><tspan x="0" y="0">Ability </tspan><tspan class="cls-45" x="47.52" y="0">t</tspan><tspan x="52.41" y="0">o o</tspan><tspan class="cls-38" x="74.57" y="0">r</tspan><tspan x="80.43" y="0">gani</tspan><tspan class="cls-29" x="112.34" y="0">c</tspan><tspan x="120.12" y="0">ally </tspan><tspan class="cls-45" x="149.04" y="0">f</tspan><tspan x="154.06" y="0">orm highly </tspan><tspan class="cls-42" x="0" y="15.73">e</tspan><tspan class="cls-46" x="8.66" y="15.73">ff</tspan><tspan x="19.06" y="15.73">ecti</tspan><tspan class="cls-28" x="44.6" y="15.73">v</tspan><tspan x="52.33" y="15.73">e </tspan><tspan class="cls-45" x="65.09" y="15.73">t</tspan><tspan x="69.98" y="15.73">eams</tspan></text><circle class="cls-11" cx="373.56" cy="157.2" r="3"/></g><g><text class="cls-12" transform="translate(383.56 207.43)"><tspan x="0" y="0">Ability </tspan><tspan class="cls-45" x="47.52" y="0">t</tspan><tspan x="52.41" y="0">o gene</tspan><tspan class="cls-38" x="101.63" y="0">r</tspan><tspan x="107.5" y="0">a</tspan><tspan class="cls-45" x="117.06" y="0">t</tspan><tspan x="121.95" y="0">e truly n</tspan><tspan class="cls-45" x="179.53" y="0">e</tspan><tspan x="188.15" y="0">w </tspan><tspan x="0" y="15.73">possibilities</tspan></text><circle class="cls-11" cx="373.56" cy="202.2" r="3"/></g><g><text class="cls-12" transform="translate(383.56 253.68)"><tspan x="0" y="0">Membe</tspan><tspan class="cls-32" x="55.67" y="0">r</tspan><tspan x="61.66" y="0">s who </tspan><tspan class="cls-45" x="106.85" y="0">t</tspan><tspan x="111.74" y="0">a</tspan><tspan class="cls-36" x="121.3" y="0">k</tspan><tspan x="128.52" y="0">e full </tspan><tspan x="0" y="15.73">a</tspan><tspan class="cls-29" x="9.56" y="15.73">cc</tspan><tspan x="25.13" y="15.73">ou</tspan><tspan class="cls-32" x="43.26" y="15.73">n</tspan><tspan class="cls-45" x="52.21" y="15.73">t</tspan><tspan x="57.1" y="15.73">ability </tspan><tspan class="cls-45" x="104.35" y="15.73">f</tspan><tspan x="109.37" y="15.73">o</tspan><tspan class="cls-50" x="118.46" y="15.73">r</tspan><tspan x="124.13" y="15.73" xml:space="preserve"> su</tspan><tspan class="cls-29" x="144.01" y="15.73">cc</tspan><tspan x="159.58" y="15.73">ess</tspan></text><circle class="cls-11" cx="373.56" cy="248.2" r="3"/></g></g><line class="cls-6" x1="183.8" y1="7.95" x2="350.56" y2="7.95"/><polygon class="cls-24" points="361.51 7.91 349.56 2.09 349.56 13.73 361.51 7.91"/></g></svg>