<?xml version="1.0" encoding="UTF-8"?><svg id="Layer_2" xmlns="http://www.w3.org/2000/svg" viewBox="0 0 158 158"><defs><style>.cls-1{fill:#fff;}</style></defs><g id="Main_page"><path class="cls-1" d="M79,0C35.37,0,0,35.37,0,79s35.37,79,79,79,79-35.37,79-79S122.63,0,79,0Zm-21.77,118.32c0,1.31-1.29,2.27-3.07,2.27h-9.07c-1.78,0-3.07-.95-3.07-2.27v-42.99c0-1.22,1.16-2.1,2.75-2.1h9.72c1.59,0,2.75,.88,2.75,2.1v42.99Zm28.5-.4c0,1.44-1.31,2.57-2.97,2.57h-9.07c-1.67,0-2.97-1.13-2.97-2.57V54.42c0-1.3,1.16-2.32,2.65-2.32h9.72c1.48,0,2.65,1.02,2.65,2.32v63.49Zm28.6-.4c0,1.64-1.33,2.97-2.97,2.97h-9.07c-1.64,0-2.97-1.33-2.97-2.97V33.52c0-1.46,1.19-2.65,2.65-2.65h9.72c1.46,0,2.65,1.19,2.65,2.65V117.51Z"/></g></svg>