<?xml version="1.0" encoding="UTF-8"?><svg id="Layer_2" xmlns="http://www.w3.org/2000/svg" viewBox="0 0 158 158"><defs><style>.cls-1{fill:#fff;}</style></defs><g id="Main_page"><path class="cls-1" d="M79,0C35.37,0,0,35.37,0,79s35.37,79,79,79,79-35.37,79-79S122.63,0,79,0Zm27.49,44.91l5.8,5.8-12.85,12.85-5.8-5.8,12.85-12.85Zm-31.87-20.44h8.2v28.82h-8.2V24.47Zm-23.67,20.44l12.85,12.85-5.8,5.8-12.85-12.85,5.8-5.8Zm-26.42,29.65h28.82v8.2H24.53v-8.2Zm26.42,37.49l-5.8-5.8,12.85-12.85,5.8,5.8-12.85,12.85Zm31.87,20.8h-8.2v-28.82h8.2v28.82Zm-4.1-35.97c-10.14,0-18.39-8.25-18.39-18.39s8.25-18.39,18.39-18.39,18.39,8.25,18.39,18.39-8.25,18.39-18.39,18.39Zm27.77,15.17l-12.85-12.85,5.8-5.8,12.85,12.85-5.8,5.8Zm26.42-29.29h-28.82v-8.2h28.82v8.2Z"/></g></svg>