<?xml version="1.0" encoding="UTF-8"?><svg id="Layer_2" xmlns="http://www.w3.org/2000/svg" viewBox="0 0 258.64 234.72"><defs><style>.cls-1{letter-spacing:0em;}.cls-2{fill:#f47c64;}.cls-3{fill:#fcb31f;}.cls-4{fill:#d1d1d1;}.cls-5{letter-spacing:-.01em;}.cls-6{letter-spacing:0em;}.cls-7{fill:#fff;font-family:SofiaPro-Bold, 'Sofia Pro';font-size:7.87px;}.cls-8{letter-spacing:-.03em;}.cls-9{letter-spacing:-.01em;}</style></defs><g id="lottie_designs"><g><polygon class="cls-4" points="171.2 76.01 87.44 76.01 129.32 0 171.2 76.01"/><polygon class="cls-4" points="200.93 129.97 57.71 129.97 86.21 78.25 172.43 78.25 200.93 129.97"/><polygon class="cls-3" points="230.66 183.93 27.99 183.93 56.48 132.21 202.16 132.21 230.66 183.93"/><text class="cls-7" transform="translate(54.99 161.36)"><tspan x="0" y="0">SI</tspan><tspan class="cls-6" x="7" y="0">X</tspan><tspan x="12.07" y="0" xml:space="preserve"> PR</tspan><tspan class="cls-5" x="23.82" y="0">A</tspan><tspan x="28.86" y="0">CTICES O</tspan><tspan class="cls-8" x="63.86" y="0">F</tspan><tspan x="67.92" y="0" xml:space="preserve"> HIGH PER</tspan><tspan class="cls-9" x="105.49" y="0">F</tspan><tspan x="109.65" y="0">ORMANCE</tspan></text><polygon class="cls-2" points="258.64 234.72 0 234.72 26.75 186.17 231.89 186.17 258.64 234.72"/><text class="cls-7" transform="translate(65.59 213.36)"><tspan x="0" y="0">D</tspan><tspan class="cls-1" x="5.61" y="0">O</tspan><tspan x="11.76" y="0">MAINS O</tspan><tspan class="cls-8" x="44.61" y="0">F</tspan><tspan x="48.67" y="0" xml:space="preserve"> HUMAN EXPERIENCE</tspan></text></g></g></svg>