<?xml version="1.0" encoding="UTF-8"?><svg id="Layer_2" xmlns="http://www.w3.org/2000/svg" viewBox="0 0 279.31 279.31"><defs><style>.cls-1{fill:#fff;font-size:15.26px;}.cls-1,.cls-2{font-family:SofiaPro-Bold, 'Sofia Pro';}.cls-3{letter-spacing:-.04em;}.cls-4{fill:#f47c64;}.cls-5{fill:#fcb31f;}.cls-6,.cls-7{fill:#d1d1d1;}.cls-8{fill:#28c2e5;}.cls-9{fill:#4ab862;}.cls-10{letter-spacing:0em;}.cls-2{fill:#515251;font-size:18.78px;}.cls-11{letter-spacing:0em;}.cls-12{letter-spacing:0em;}.cls-13{letter-spacing:-.03em;}.cls-14{letter-spacing:-.04em;}.cls-7{opacity:.5;}.cls-15{letter-spacing:-.03em;}</style></defs><g id="lottie_designs"><g><g><path class="cls-6" d="M235.09,82.58l-1.83-14.43-3.47,2.63c-9.05-12.27-20.59-22.77-33.66-30.55l-2.4,4.03c12.56,7.48,23.65,17.57,32.33,29.36l-4.38,3.33,13.41,5.63Z"/><circle class="cls-7" cx="139.66" cy="139.66" r="75.5"/><circle class="cls-4" cx="139.66" cy="49.29" r="49.29"/><circle class="cls-9" cx="139.66" cy="230.02" r="49.29"/><circle class="cls-5" cx="230.02" cy="139.66" r="49.29"/><circle class="cls-8" cx="49.29" cy="139.66" r="49.29"/><path class="cls-6" d="M83.79,42.34l-14.43,1.83,2.63,3.47c-12.27,9.05-22.77,20.59-30.55,33.67l4.03,2.4c7.48-12.56,17.57-23.65,29.36-32.33l3.33,4.38,5.63-13.41Z"/><path class="cls-6" d="M237.11,198.45l-4.03-2.4c-7.48,12.56-17.57,23.65-29.36,32.33l-3.33-4.38-5.63,13.41,14.43-1.83-2.63-3.47c12.27-9.05,22.77-20.59,30.55-33.67Z"/><path class="cls-6" d="M52.49,206.12l4.38-3.33-13.41-5.63,1.83,14.43,3.47-2.63c9.05,12.27,20.59,22.77,33.66,30.55l2.4-4.03c-12.56-7.48-23.65-17.57-32.33-29.36Z"/></g><text class="cls-1" transform="translate(112.55 53.94)"><tspan class="cls-12" x="0" y="0">E</tspan><tspan x="8.65" y="0">ngage</tspan></text><text class="cls-1" transform="translate(119.32 237.06)"><tspan class="cls-10" x="0" y="0">L</tspan><tspan x="7.55" y="0">earn</tspan></text><text class="cls-2" transform="translate(116.57 130.39)"><tspan x="0" y="0">MIND</tspan><tspan x="-.95" y="16.43">BO</tspan><tspan class="cls-3" x="25.77" y="16.43">D</tspan><tspan class="cls-14" x="38.33" y="16.43">Y</tspan><tspan x="-3.3" y="32.86">SPIRI</tspan><tspan class="cls-13" x="42.71" y="32.86">T</tspan></text><text class="cls-1" transform="translate(15.53 144.35)"><tspan class="cls-12" x="0" y="0">E</tspan><tspan x="8.65" y="0">mp</tspan><tspan class="cls-12" x="31.32" y="0">ow</tspan><tspan x="51.49" y="0">e</tspan><tspan class="cls-15" x="60.08" y="0">r</tspan></text><text class="cls-1" transform="translate(208.83 144.35)"><tspan class="cls-11" x="0" y="0">C</tspan><tspan x="10.59" y="0">oach</tspan></text></g></g></svg>