<?xml version="1.0" encoding="UTF-8"?><svg id="Layer_2" xmlns="http://www.w3.org/2000/svg" viewBox="0 0 361.02 81.75"><defs><style>.cls-1{fill:#f0b346;}.cls-2{fill:#b64b3c;}.cls-3{fill:#e3806b;}.cls-4{fill:#515251;}</style></defs><g id="Main_page"><g><path class="cls-4" d="M243.58,43.47c0,10.83,8.8,19.65,19.62,19.65,2.27-.23,2.27-2.13,2.27-2.13v-8.2c.01-2.53-2.27-2.48-2.27-2.48-3.76,0-6.82-3.07-6.82-6.83v-12.61h7.16c1.5,0,1.65-1.42,1.65-1.42v-7.84c0-1.77-1.3-1.77-1.3-1.77h-7.48V7.07c0-1.32-.84-1.88-.84-1.88-1.13-.74-2.52,0-2.52,0l-6.86,2.31c-2.55,1.26-2.58,3.89-2.64,4.54l.03,31.43Z"/><path class="cls-4" d="M24.82,19.62c-3.74,0-8.94,1.27-12.27,4.72v-1.45c0-1.23-1-2.24-2.24-2.24H2.23c-1.23,0-2.23,1-2.23,2.24v56.63c0,1.23,1,2.23,2.23,2.23H10.32c1.23,0,2.24-1,2.24-2.23v-21.34c3.27,3.39,8.33,4.64,12.27,4.64,11.6,0,20.35-9.27,20.35-21.55,0-14.05-10.48-21.64-20.35-21.64m7.54,21.64c0,5.43-4.26,9.69-9.69,9.69-4.7,0-9.78-3.7-9.78-9.69,0-5.48,4.29-9.78,9.78-9.78s9.69,4.29,9.69,9.78"/><path class="cls-4" d="M80.44,20.39c-1.88-.63-3.9-.77-5.25-.77-4.88,0-8.76,2.47-11.16,7.04v-3.77c0-1.23-1-2.24-2.24-2.24h-7.99c-1.23,0-2.24,1-2.24,2.24V59.81c0,1.23,1,2.24,2.24,2.24h8.08c1.23,0,2.24-1,2.24-2.24v-12.17c0-10.26,3.31-16.15,9.09-16.15,.89,0,2.27,.07,3.92,.69,.58,.22,1.23,.17,1.79-.12,.57-.3,.98-.83,1.13-1.46l1.82-7.57c.27-1.12-.36-2.27-1.42-2.63"/><path class="cls-4" d="M104.47,19.62c-12.68,0-22.24,9.3-22.24,21.64s9.56,21.55,22.24,21.55,22.24-9.27,22.24-21.55-9.56-21.64-22.24-21.64m9.52,21.64c0,5.57-4.09,9.78-9.52,9.78s-9.52-4.2-9.52-9.78,4-9.86,9.52-9.86,9.52,4.15,9.52,9.86"/><path class="cls-4" d="M144.03,20.66h-8.08c-1.23,0-2.24,1-2.24,2.24V62.35c0,2.29-.56,7.62-5.73,7.62h-3.31c-1.23,0-2.23,1-2.23,2.24v7.31c0,1.23,1,2.23,2.23,2.23h3.65c11.57,0,17.94-6.86,17.94-19.32V22.89c0-1.23-1-2.24-2.24-2.24"/><path class="cls-4" d="M140.03,0c-4.34,0-7.87,3.3-7.87,7.35s3.53,7.44,7.87,7.44,7.69-3.27,7.69-7.44-3.38-7.35-7.69-7.35"/><path class="cls-4" d="M173.37,19.62c-12.74,0-21.98,9.14-21.98,21.73s9.04,21.47,21.98,21.47c6.96,0,13.46-2.56,17.38-6.84,.82-.89,.79-2.26-.06-3.11l-4.46-4.46c-.83-.83-2.18-.86-3.07-.07-2.28,2.02-5.65,3.23-9.01,3.23-4.86,0-8.22-2.11-9.56-5.95h27.92c1.19,0,2.17-.94,2.23-2.13,.06-1.1,.1-2.02,.1-2.81,0-12.19-9.03-21.04-21.47-21.04m8.84,17.39h-17.66c1.6-5.46,6.27-6.3,8.99-6.3,4.65,0,8.05,2.5,8.67,6.3"/><path class="cls-4" d="M238.38,52.08l-5.88-4.14c-.89-.62-2.1-.51-2.88,.27-1.76,1.75-4.48,2.83-7.1,2.83-5.82,0-10.04-4.15-10.04-9.86s4.22-9.78,10.04-9.78c2.62,0,5.34,1.09,7.1,2.83,.79,.78,2,.89,2.88,.27l5.87-4.13c.51-.36,.85-.93,.93-1.56,.08-.63-.12-1.27-.53-1.75-4.13-4.8-9.94-7.44-16.33-7.44-12.93,0-22.67,9.27-22.67,21.55s9.75,21.64,22.67,21.64c6.57,0,12.22-2.58,16.36-7.45,.41-.48,.59-1.11,.51-1.73-.08-.62-.42-1.19-.93-1.55"/><path class="cls-1" d="M333.32,20.31h-8.78c-.99,0-1.84,.63-2.13,1.57l-6.62,21.37-6.7-21.37c-.29-.94-1.15-1.57-2.13-1.57h-7.12c-.98,0-1.84,.63-2.13,1.57l-6.7,21.37-6.62-21.37c-.29-.94-1.15-1.57-2.14-1.57h-8.76c-.73,0-1.41,.36-1.83,.95-.42,.6-.52,1.36-.27,2.05l13.47,36.91c.32,.88,1.17,1.47,2.1,1.47h7.34c.99,0,1.85-.64,2.14-1.58l7.06-23,7.29,23.02c.29,.93,1.15,1.56,2.13,1.56h7.34c.95,0,1.79-.6,2.11-1.49l13.07-36.91h0c.24-.68,.14-1.45-.28-2.04-.42-.59-1.1-.94-1.82-.94"/><path class="cls-3" d="M339.55,19.28c-12.74,0-21.98,9.14-21.98,21.73s9.04,21.47,21.98,21.47c6.96,0,13.46-2.56,17.38-6.84,.82-.89,.79-2.26-.06-3.11l-4.46-4.46c-.83-.83-2.18-.86-3.07-.07-2.28,2.02-5.65,3.23-9.01,3.23-4.86,0-8.22-2.11-9.56-5.95h27.92c1.19,0,2.17-.94,2.23-2.13,.05-1.1,.1-2.02,.1-2.81,0-12.19-9.03-21.04-21.47-21.04m-8.82,17.39c1.6-5.46,6.27-6.3,8.99-6.3,4.65,0,8.05,2.5,8.67,6.3h-17.66Z"/><path class="cls-2" d="M335.14,21.26c-.42-.6-1.1-.94-1.82-.94h-.85c-6.36,1.93-11.22,6.48-13.48,12.59-.29,.78-.54,1.57-.74,2.4-.01,.03-.01,.05-.03,.08-.42,1.77-.65,3.66-.65,5.62,0,6.31,2.24,11.67,6.11,15.45l11.74-33.17c.09-.24,.13-.5,.13-.74,0-.46-.14-.91-.41-1.29"/></g></g></svg>