<?xml version="1.0" encoding="UTF-8"?><svg id="Layer_2" xmlns="http://www.w3.org/2000/svg" viewBox="0 0 551.2 152.87"><defs><style>.cls-1{letter-spacing:-.01em;}.cls-2{letter-spacing:0em;}.cls-3{letter-spacing:-.02em;}.cls-4,.cls-5,.cls-6{fill:#515251;}.cls-4,.cls-7{font-family:SofiaPro-Bold, 'Sofia Pro';}.cls-4,.cls-6{font-size:15.26px;}.cls-8{letter-spacing:0em;}.cls-9{letter-spacing:-.02em;}.cls-10{letter-spacing:0em;}.cls-11{letter-spacing:0em;}.cls-12{letter-spacing:0em;}.cls-13{fill:#f47c64;}.cls-14{fill:#fcb31f;}.cls-15{fill:#991c21;}.cls-16{fill:#8bd3db;}.cls-17{fill:#c64234;}.cls-18{fill:#3585c6;}.cls-19{fill:#28c2e5;}.cls-20{fill:#4ab862;}.cls-21{letter-spacing:0em;}.cls-22{letter-spacing:-.01em;}.cls-23{letter-spacing:0em;}.cls-24{letter-spacing:0em;}.cls-7{fill:#fff;font-size:8.78px;}.cls-25{letter-spacing:-.04em;}.cls-26{letter-spacing:0em;}.cls-27{letter-spacing:-.02em;}.cls-28{letter-spacing:-.01em;}.cls-29{letter-spacing:-.03em;}.cls-30{letter-spacing:0em;}.cls-31{letter-spacing:0em;}.cls-32{letter-spacing:0em;}.cls-6{font-family:SofiaProRegular, 'Sofia Pro';}.cls-33{letter-spacing:0em;}</style></defs><g id="lottie_designs"><g><rect class="cls-16" y="101.91" width="73.19" height="50.96"/><rect class="cls-19" x="73.19" y="101.91" width="73.19" height="50.96"/><rect class="cls-18" x="146.38" y="101.91" width="73.19" height="50.96"/><rect class="cls-13" y="50.96" width="73.19" height="50.96"/><rect class="cls-17" x="73.19" y="50.96" width="73.19" height="50.96"/><rect class="cls-15" x="146.38" y="50.96" width="73.19" height="50.96"/><rect class="cls-20" x="73.19" width="73.19" height="50.96"/><rect class="cls-14" x="146.38" width="73.19" height="50.96"/><text class="cls-7" transform="translate(21.68 129.45)"><tspan class="cls-23" x="0" y="0">A</tspan><tspan class="cls-12" x="5.71" y="0">cc</tspan><tspan x="14.65" y="0">e</tspan><tspan class="cls-10" x="19.59" y="0">p</tspan><tspan x="24.91" y="0">t</tspan></text><text class="cls-7" transform="translate(97.24 129.45)"><tspan class="cls-9" x="0" y="0">P</tspan><tspan x="5.24" y="0">ea</tspan><tspan class="cls-12" x="15.58" y="0">c</tspan><tspan x="20.05" y="0">e</tspan></text><text class="cls-7" transform="translate(164.57 129.45)"><tspan x="0" y="0">Ambition</tspan></text><text class="cls-7" transform="translate(19.85 80.1)"><tspan class="cls-31" x="0" y="0">O</tspan><tspan x="6.86" y="0">ppose</tspan></text><text class="cls-7" transform="translate(85.54 80.1)"><tspan class="cls-3" x="0" y="0">R</tspan><tspan x="5.38" y="0">ese</tspan><tspan class="cls-11" x="19.36" y="0">n</tspan><tspan x="24.42" y="0">tme</tspan><tspan class="cls-24" x="40.18" y="0">n</tspan><tspan x="45.24" y="0">t</tspan></text><text class="cls-7" transform="translate(158.8 80.1)"><tspan class="cls-3" x="0" y="0">R</tspan><tspan x="5.38" y="0">esignation</tspan></text><text class="cls-7" transform="translate(85.82 25.31)"><tspan x="0" y="0">Assessme</tspan><tspan class="cls-24" x="39.62" y="0">n</tspan><tspan x="44.68" y="0">t </tspan><tspan class="cls-10" x="10.06" y="8.78">o</tspan><tspan class="cls-11" x="15.04" y="8.78">f</tspan><tspan class="cls-2" x="18.19" y="8.78"> </tspan><tspan class="cls-25" x="20.28" y="8.78">F</tspan><tspan x="24.67" y="8.78">act</tspan></text><text class="cls-7" transform="translate(159.01 25.31)"><tspan x="0" y="0">Assessme</tspan><tspan class="cls-24" x="39.62" y="0">n</tspan><tspan x="44.68" y="0">t </tspan><tspan class="cls-10" x="-1.52" y="8.78">o</tspan><tspan class="cls-11" x="3.46" y="8.78">f</tspan><tspan class="cls-2" x="6.6" y="8.78"> </tspan><tspan class="cls-27" x="8.69" y="8.78">P</tspan><tspan x="13.94" y="8.78">ossibilit</tspan><tspan class="cls-1" x="44.95" y="8.78">y</tspan></text></g><g><text class="cls-4" transform="translate(253.97 29.12)"><tspan x="0" y="0">What</tspan><tspan class="cls-33" x="37.54" y="0"> </tspan><tspan class="cls-32" x="41.02" y="0">w</tspan><tspan x="52.51" y="0">ould it be li</tspan><tspan class="cls-29" x="129.94" y="0">k</tspan><tspan x="137.35" y="0">e i</tspan><tspan class="cls-8" x="153.59" y="0">f</tspan><tspan x="159.05" y="0" xml:space="preserve"> a mood </tspan><tspan class="cls-21" x="219.57" y="0">o</tspan><tspan class="cls-8" x="228.22" y="0">f</tspan><tspan x="233.69" y="0"> </tspan><tspan x="0" y="15.26">ambition</tspan><tspan class="cls-33" x="63.22" y="15.26"> </tspan><tspan class="cls-32" x="66.7" y="15.26">w</tspan><tspan x="78.19" y="15.26">as the norm?</tspan></text><g><text class="cls-6" transform="translate(264.37 73.35)"><tspan class="cls-30" x="0" y="0">Ho</tspan><tspan x="19.43" y="0">w </tspan><tspan class="cls-30" x="35.17" y="0">w</tspan><tspan x="46.94" y="0">ould it </tspan><tspan class="cls-33" x="93.69" y="0">f</tspan><tspan x="98.56" y="0">eel?</tspan></text><text class="cls-6" transform="translate(264.37 102.3)"><tspan x="0" y="0">What is cur</tspan><tspan class="cls-28" x="77.15" y="0">r</tspan><tspan x="82.85" y="0">e</tspan><tspan class="cls-26" x="91.36" y="0">n</tspan><tspan x="100.04" y="0">tly in the </tspan><tspan class="cls-30" x="162.41" y="0">w</tspan><tspan x="174.18" y="0">ay?</tspan></text><text class="cls-6" transform="translate(264.37 131.24)"><tspan x="0" y="0">What a</tspan><tspan class="cls-28" x="49.87" y="0">r</tspan><tspan x="55.56" y="0">e </tspan><tspan class="cls-22" x="67.94" y="0">y</tspan><tspan x="75.41" y="0">ou leaving on the </tspan><tspan class="cls-33" x="199.03" y="0">t</tspan><tspan x="203.78" y="0">able?</tspan></text><circle class="cls-5" cx="256.89" cy="127.86" r="2.91"/><circle class="cls-5" cx="256.89" cy="97.78" r="2.91"/><circle class="cls-5" cx="256.89" cy="67.7" r="2.91"/></g></g></g></svg>