<?xml version="1.0" encoding="UTF-8"?><svg id="Layer_2" xmlns="http://www.w3.org/2000/svg" viewBox="0 0 324.5 361.5"><defs><style>.cls-1{fill:#f48336;}.cls-2,.cls-3,.cls-4{fill:#fff;}.cls-5{fill:#515251;}.cls-6{letter-spacing:0em;}.cls-7{letter-spacing:-.01em;}.cls-8{letter-spacing:0em;}.cls-9{fill:none;stroke:#f48336;stroke-miterlimit:10;stroke-width:4.32px;}.cls-3{font-family:SofiaPro-Bold, 'Sofia Pro';font-size:25px;}.cls-4{opacity:.25;}</style></defs><g id="lottie_designs"><g><rect class="cls-1" x=".25" y=".5" width="324" height="361"/><circle class="cls-2" cx="162" cy="208.5" r="76.5"/><rect class="cls-4" width="324.5" height="77"/><text class="cls-3" transform="translate(102.81 46.88)"><tspan class="cls-8" x="0" y="0">P</tspan><tspan class="cls-7" x="15.3" y="0">r</tspan><tspan x="25.3" y="0">acti</tspan><tspan class="cls-6" x="69.17" y="0">c</tspan><tspan x="81.9" y="0">es</tspan></text><g><circle class="cls-9" cx="162.5" cy="209.88" r="54"/><circle class="cls-9" cx="162.5" cy="210.31" r="34.99"/><circle class="cls-9" cx="162.5" cy="210.31" r="13.39"/></g><path class="cls-5" d="M205.48,242.53l-3.79,50.98-37.74,2.22-22.68-38.16c-2.15-2.95-1.51-7.08,1.43-9.25,2.94-2.15,7.08-1.51,9.23,1.43l1.18,1.61c1.14,1.55,3.62,.75,3.62-1.19v-33.84c0-3.04,2.23-5.76,5.26-6.05,3.47-.32,6.39,2.4,6.39,5.81v16.15c1.1-2.58,3.72-4.36,6.74-4.21,3.74,.19,6.58,3.46,6.58,7.21v2.76c0-3.24,2.79-5.84,6.09-5.53,2.89,.28,5.01,2.87,5.01,5.77v2.31s1,1.35,1.61,1.07c.22-2.82,2.7-4.91,5.51-4.68l.87,.07c2.82,.23,4.92,2.71,4.68,5.52Z"/></g></g></svg>