<?xml version="1.0" encoding="UTF-8"?><svg id="Layer_2" xmlns="http://www.w3.org/2000/svg" viewBox="0 0 403.98 316.36"><defs><style>.cls-1{letter-spacing:-.08em;}.cls-2,.cls-3{fill:#f47c64;}.cls-4,.cls-5{fill:#fff;}.cls-6,.cls-7{fill:#fcb31f;}.cls-8{fill:#d1d1d1;}.cls-9{fill:#c64234;}.cls-10{fill:#3585c6;}.cls-11,.cls-12{fill:#28c2e5;}.cls-13{letter-spacing:0em;}.cls-14{letter-spacing:-.01em;}.cls-12,.cls-15,.cls-3,.cls-7{font-size:6.87px;}.cls-12,.cls-15,.cls-3,.cls-7,.cls-5,.cls-16{font-family:SofiaPro-Bold, 'Sofia Pro';}.cls-15{fill:#4ab862;}.cls-17{fill:none;stroke:#d1d1d1;stroke-miterlimit:10;stroke-width:6.16px;}.cls-18{letter-spacing:-.01em;}.cls-5{font-size:8.96px;}.cls-19{letter-spacing:-.01em;}.cls-20{letter-spacing:-.02em;}.cls-21{letter-spacing:-.06em;}.cls-22{letter-spacing:-.06em;}.cls-23{letter-spacing:0em;}.cls-24{letter-spacing:0em;}.cls-25{letter-spacing:0em;}.cls-26{letter-spacing:-.05em;}.cls-16{fill:#515251;font-size:9.58px;}.cls-27{letter-spacing:-.04em;}.cls-28{letter-spacing:-.03em;}</style></defs><g id="lottie_designs"><g><path class="cls-8" d="M329.27,108.7l-2.35-18.61-4.47,3.4c-11.67-15.82-26.56-29.37-43.42-39.41l-3.1,5.2c16.19,9.64,30.5,22.66,41.7,37.86l-5.65,4.29,17.3,7.27Z"/><path class="cls-8" d="M118.02,68.33l4.29,5.65,7.27-17.3-18.61,2.35,3.4,4.47c-15.82,11.67-29.37,26.56-39.41,43.42l5.2,3.1c9.64-16.19,22.66-30.5,37.87-41.7Z"/><g><path class="cls-17" d="M277.71,292.8c-21.7,13-47.1,20.48-74.24,20.48s-52.18-7.37-73.78-20.2"/><polygon class="cls-8" points="121.8 286.17 128.31 303.96 140.47 289.43 121.8 286.17"/></g><g><path class="cls-10" d="M38.26,209.68c1.31-1.74,2.09-3.9,2.09-6.26,0-5.75-4.66-10.42-10.41-10.42s-10.42,4.66-10.42,10.42c0,2.35,.79,4.52,2.1,6.26-3.38,2.53-5.58,6.56-5.58,11.1,0,7.67,6.22,13.89,13.89,13.89s13.89-6.21,13.89-13.89c0-4.55-2.19-8.58-5.57-11.1"/><path class="cls-10" d="M105.99,209.68c1.31-1.74,2.09-3.9,2.09-6.26,0-5.75-4.66-10.42-10.41-10.42s-10.42,4.66-10.42,10.42c0,2.35,.79,4.52,2.1,6.26-3.38,2.53-5.58,6.56-5.58,11.1,0,7.67,6.22,13.89,13.89,13.89s13.89-6.21,13.89-13.89c0-4.55-2.19-8.58-5.57-11.1"/></g><path class="cls-10" d="M202.97,31.79c1.31-1.74,2.09-3.9,2.09-6.26,0-5.75-4.66-10.42-10.41-10.42s-10.42,4.66-10.42,10.42c0,2.35,.79,4.52,2.1,6.26-3.38,2.53-5.58,6.56-5.58,11.1,0,7.67,6.22,13.89,13.89,13.89s13.89-6.21,13.89-13.89c0-4.55-2.19-8.58-5.57-11.1"/><g><path class="cls-2" d="M84.13,199.11h-13.99c-8.01,0-14.81-6.26-15.04-14.26-.26-8.72,7.09-15.81,15.9-15.11,7.01,.55,12.74,6.15,13.44,13.15,.4,4.02-.82,7.76-3.09,10.62,.95,2,2.26,3.45,3.27,4.37,.48,.43,.16,1.22-.48,1.22Z"/><path class="cls-11" d="M43.48,199.11h13.99c8.01,0,14.81-6.26,15.04-14.26,.26-8.72-7.09-15.81-15.9-15.11-7.01,.55-12.74,6.15-13.44,13.15-.4,4.02,.82,7.76,3.09,10.62-.95,2-2.26,3.45-3.27,4.37-.48,.43-.16,1.22,.48,1.22Z"/><path class="cls-9" d="M72.51,184.84c-.16,5.76-3.74,10.62-8.71,12.88-4.97-2.27-8.54-7.12-8.71-12.88-.18-6.17,3.45-11.53,8.72-13.88,5.26,2.35,8.89,7.71,8.7,13.88Z"/></g><path class="cls-10" d="M203.15,31.79c1.31-1.74,2.09-3.9,2.09-6.26,0-5.75-4.66-10.42-10.41-10.42s-10.42,4.66-10.42,10.42c0,2.35,.79,4.52,2.1,6.26-3.38,2.53-5.58,6.56-5.58,11.1,0,7.67,6.22,13.89,13.89,13.89s13.89-6.21,13.89-13.89c0-4.55-2.19-8.58-5.57-11.1"/><g><path class="cls-2" d="M208.38,29.42h13.99c8.01,0,14.81-6.26,15.04-14.26,.26-8.72-7.09-15.81-15.9-15.11-7.01,.55-12.74,6.15-13.44,13.15-.4,4.02,.82,7.76,3.09,10.62-.95,2-2.26,3.45-3.27,4.37-.48,.43-.16,1.22,.48,1.22Z"/><path class="cls-11" d="M180.67,21.12l-18.09-10.44c-.59-.34-1.33,.09-1.33,.77v20.89c0,.68,.74,1.11,1.33,.77l18.09-10.44c.59-.34,.59-1.2,0-1.54Z"/></g><text class="cls-16" transform="translate(137.93 48.38)"><tspan x="0" y="0">VISION</tspan></text><text class="cls-16" transform="translate(216.19 48.38)"><tspan x="0" y="0">D</tspan><tspan class="cls-14" x="6.82" y="0">E</tspan><tspan x="12.17" y="0">CLAR</tspan><tspan class="cls-22" x="36.05" y="0">A</tspan><tspan x="41.76" y="0">TIONS</tspan></text><text class="cls-16" transform="translate(310.24 136.64)"><tspan x="0" y="0">EX</tspan><tspan class="cls-14" x="11.72" y="0">E</tspan><tspan x="17.08" y="0">CUTION</tspan></text><text class="cls-16" transform="translate(36.62 136.64)"><tspan x="0" y="0">INN</tspan><tspan class="cls-20" x="16.01" y="0">O</tspan><tspan class="cls-27" x="23.37" y="0">V</tspan><tspan class="cls-22" x="28.55" y="0">A</tspan><tspan x="34.26" y="0">TION</tspan></text><text class="cls-16" transform="translate(26.45 271.43)"><tspan class="cls-24" x="0" y="0">C</tspan><tspan x="6.63" y="0">ONVER</tspan><tspan class="cls-23" x="37.82" y="0">S</tspan><tspan class="cls-22" x="43.32" y="0">A</tspan><tspan x="49.02" y="0">TIONS</tspan><tspan class="cls-19" x="-3.86" y="9.58">F</tspan><tspan x="1.2" y="9.58">OR POSSIBILITIES</tspan></text><text class="cls-16" transform="translate(295.35 271.43)"><tspan class="cls-24" x="0" y="0">C</tspan><tspan x="6.63" y="0">ONVER</tspan><tspan class="cls-23" x="37.82" y="0">S</tspan><tspan class="cls-22" x="43.32" y="0">A</tspan><tspan x="49.02" y="0">TIONS</tspan><tspan class="cls-19" x="8.7" y="9.58">F</tspan><tspan x="13.76" y="9.58">OR RESU</tspan><tspan class="cls-1" x="53.33" y="9.58">L</tspan><tspan class="cls-13" x="57.4" y="9.58">T</tspan><tspan x="62.67" y="9.58">S</tspan></text><g><g><circle class="cls-10" cx="335.89" cy="201.97" r="40.62"/><text class="cls-5" transform="translate(308.58 194.3)"><tspan class="cls-25" x="0" y="0">C</tspan><tspan x="6.2" y="0">ONDITIONS</tspan><tspan x="21.48" y="10.76">O</tspan><tspan class="cls-28" x="28.51" y="10.76">F</tspan><tspan class="cls-25" x="-3.1" y="21.51">S</tspan><tspan class="cls-21" x="2.05" y="21.51">A</tspan><tspan x="7.39" y="21.51">TIS</tspan><tspan class="cls-26" x="20.37" y="21.51">F</tspan><tspan class="cls-18" x="24.78" y="21.51">A</tspan><tspan x="30.53" y="21.51">CTION</tspan></text></g><g><g><path class="cls-8" d="M379.79,175.72l-.84-6.61-1.59,1.21c-4.14-5.62-9.43-10.43-15.42-14l-1.1,1.85c5.75,3.43,10.83,8.05,14.81,13.45l-2.01,1.52,6.14,2.58Z"/><path class="cls-8" d="M310.47,157.28l-6.61,.84,1.21,1.59c-5.62,4.14-10.43,9.44-14,15.42l1.85,1.1c3.43-5.75,8.05-10.83,13.45-14.81l1.52,2.01,2.58-6.14Z"/><path class="cls-8" d="M380.71,228.81l-1.85-1.1c-3.43,5.75-8.05,10.83-13.45,14.81l-1.52-2.01-2.58,6.14,6.61-.84-1.21-1.59c5.62-4.14,10.43-9.43,14-15.42Z"/><path class="cls-8" d="M296.13,232.32l2.01-1.52-6.14-2.58,.84,6.61,1.59-1.21c4.14,5.62,9.43,10.43,15.42,14l1.1-1.85c-5.75-3.43-10.83-8.05-14.81-13.45Z"/></g><text class="cls-12" transform="translate(313.94 250.75) rotate(21.79)"><tspan x="0" y="0">A</tspan></text><text class="cls-12" transform="translate(318.3 252.49) rotate(16.62)"><tspan x="0" y="0">C</tspan></text><text class="cls-12" transform="translate(323.13 253.92) rotate(11.23)"><tspan x="0" y="0">C</tspan></text><text class="cls-12" transform="translate(328.14 254.88) rotate(6.18)"><tspan x="0" y="0">E</tspan></text><text class="cls-12" transform="translate(332.3 255.33) rotate(1.5)"><tspan x="0" y="0">P</tspan></text><text class="cls-12" transform="translate(336.81 255.43) rotate(-3.14)"><tspan x="0" y="0">T</tspan></text><text class="cls-12" transform="translate(340.49 255.24) rotate(-7.43)"><tspan x="0" y="0">A</tspan></text><text class="cls-12" transform="translate(345.22 254.62) rotate(-12.64)"><tspan x="0" y="0">N</tspan></text><text class="cls-12" transform="translate(350.06 253.52) rotate(-18)"><tspan x="0" y="0">C</tspan></text><text class="cls-12" transform="translate(354.89 251.92) rotate(-22.95)"><tspan x="0" y="0">E</tspan></text><text class="cls-3" transform="translate(314.25 158.76) rotate(-24.06)"><tspan x="0" y="0">P</tspan></text><text class="cls-3" transform="translate(318.05 157.06) rotate(-19.06)"><tspan x="0" y="0">R</tspan></text><text class="cls-3" transform="translate(322.09 155.67) rotate(-14.27)"><tspan x="0" y="0">E</tspan></text><text class="cls-3" transform="translate(325.8 154.71) rotate(-9.55)"><tspan x="0" y="0">P</tspan></text><text class="cls-3" transform="translate(329.63 154.05) rotate(-4.79)"><tspan x="0" y="0">A</tspan></text><text class="cls-3" transform="translate(333.99 153.68) rotate(.36)"><tspan x="0" y="0">R</tspan></text><text class="cls-3" transform="translate(338.28 153.7) rotate(5.56)"><tspan x="0" y="0">A</tspan></text><text class="cls-3" transform="translate(342.23 154.08) rotate(9.93)"><tspan x="0" y="0">T</tspan></text><text class="cls-3" transform="translate(345.96 154.76) rotate(13.42)"><tspan x="0" y="0">I</tspan></text><text class="cls-3" transform="translate(347.92 155.16) rotate(17.75)"><tspan x="0" y="0">O</tspan></text><text class="cls-3" transform="translate(352.98 156.76) rotate(24.39)"><tspan x="0" y="0">N</tspan></text><text class="cls-7" transform="translate(383.13 227) rotate(-64.36)"><tspan x="0" y="0">P</tspan></text><text class="cls-7" transform="translate(385.04 222.97) rotate(-68.9)"><tspan x="0" y="0">E</tspan></text><text class="cls-7" transform="translate(386.56 219.04) rotate(-73.6)"><tspan x="0" y="0">R</tspan></text><text class="cls-7" transform="translate(387.85 214.58) rotate(-78.24)"><tspan x="0" y="0">F</tspan></text><text class="cls-7" transform="translate(388.67 210.78) rotate(-83.33)"><tspan x="0" y="0">O</tspan></text><text class="cls-7" transform="translate(389.29 205.1) rotate(-88.94)"><tspan x="0" y="0">R</tspan></text><text class="cls-7" transform="translate(389.41 200.41) rotate(-95.05)"><tspan x="0" y="0">M</tspan></text><text class="cls-7" transform="translate(388.76 193.74) rotate(-101.22)"><tspan x="0" y="0">A</tspan></text><text class="cls-7" transform="translate(387.82 189.07) rotate(-106.41)"><tspan x="0" y="0">N</tspan></text><text class="cls-7" transform="translate(386.4 184.28) rotate(-111.79)"><tspan x="0" y="0">C</tspan></text><text class="cls-7" transform="translate(384.5 179.61) rotate(-116.71)"><tspan x="0" y="0">E</tspan></text><text class="cls-15" transform="translate(292.58 223.29) rotate(-113.5)"><tspan x="0" y="0">N</tspan></text><text class="cls-15" transform="translate(290.77 219.1) rotate(-108.55)"><tspan x="0" y="0">E</tspan></text><text class="cls-15" transform="translate(289.54 215.54) rotate(-103.37)"><tspan x="0" y="0">G</tspan></text><text class="cls-15" transform="translate(288.36 210.63) rotate(-97.26)"><tspan x="0" y="0">O</tspan></text><text class="cls-15" transform="translate(287.74 205.55) rotate(-92.09)"><tspan x="0" y="0">T</tspan></text><text class="cls-15" transform="translate(287.62 201.79) rotate(-88.63)"><tspan x="0" y="0">I</tspan></text><text class="cls-15" transform="translate(287.63 199.77) rotate(-84.79)"><tspan x="0" y="0">A</tspan></text><text class="cls-15" transform="translate(287.99 195.75) rotate(-80.34)"><tspan x="0" y="0">T</tspan></text><text class="cls-15" transform="translate(288.64 192.05) rotate(-76.89)"><tspan x="0" y="0">I</tspan></text><text class="cls-15" transform="translate(289.04 190.06) rotate(-72.52)"><tspan x="0" y="0">O</tspan></text><text class="cls-15" transform="translate(290.66 185.06) rotate(-67.47)"><tspan x="0" y="0">N</tspan></text></g></g><g><path class="cls-6" d="M240.18,175.29c0-21.79-17.66-39.45-39.45-39.45s-39.45,17.66-39.45,39.45,17.66,39.45,39.45,39.45,39.45-17.66,39.45-39.45"/><path class="cls-4" d="M224.46,172.56s0,0,0,0c0,0,0,0,0,0,.93-1.72,1.47-3.69,1.47-5.78,0-6.72-5.45-12.17-12.17-12.17s-12.17,5.45-12.17,12.17c0,2.1,.53,4.06,1.47,5.78,0,0,0,0,0,0,0,0,0,0,0,0-2.28,2.54-3.66,5.9-3.66,9.58,0,7.94,6.43,14.37,14.37,14.37s14.37-6.43,14.37-14.37c0-3.68-1.39-7.04-3.66-9.58m-10.71-10.24c2.45,0,4.44,1.99,4.44,4.44,0,.57-.11,1.11-.3,1.61-.06,.15-.13,.29-.2,.43-.03,.06-.05,.12-.08,.17-.07,.12-.15,.23-.23,.35-.05,.07-.08,.14-.13,.2-.08,.11-.18,.2-.27,.3-.05,.06-.1,.12-.16,.17-.01,0-.02,.02-.03,.03-.08,.08-.18,.15-.27,.22-.07,.06-.13,.12-.21,.17,0,0,0,0-.02,.01-.1,.07-.21,.12-.31,.18-.07,.04-.14,.09-.21,.13-.03,.02-.06,.03-.09,.05-.14,.07-.28,.12-.42,.17-.04,.01-.07,.03-.11,.05-.01,0-.02,0-.03,.01-.13,.04-.28,.07-.42,.1-.06,.01-.11,.03-.17,.04-.05,0-.09,.02-.14,.02-.2,.03-.41,.05-.62,.05s-.42-.02-.62-.05c-.05,0-.09-.01-.14-.02-.06-.01-.11-.03-.17-.04-.14-.03-.28-.06-.42-.1-.01,0-.02,0-.03-.01-.04-.01-.07-.03-.11-.05-.14-.05-.29-.11-.42-.17-.03-.02-.06-.03-.09-.05-.07-.03-.12-.08-.19-.11-.11-.06-.23-.12-.33-.2,0,0-.01,0-.02-.01-.06-.04-.12-.1-.18-.15-.1-.08-.2-.15-.3-.24-.01,0-.02-.02-.03-.03-.06-.05-.1-.12-.16-.17-.09-.1-.19-.19-.27-.3-.05-.06-.09-.13-.13-.2-.08-.11-.16-.23-.23-.35-.03-.05-.05-.11-.08-.17-.07-.14-.15-.28-.21-.43-.19-.5-.3-1.04-.3-1.61,0-2.45,1.99-4.44,4.44-4.44m0,26.27c-3.56,0-6.45-2.89-6.45-6.45,0-1.61,.6-3.08,1.58-4.22,.04-.04,.08-.08,.12-.12,.11-.12,.22-.24,.34-.35,.01-.01,.03-.03,.04-.04,.03-.03,.07-.06,.1-.08,.11-.1,.23-.2,.35-.3,.03-.02,.06-.04,.08-.06,.02-.01,.04-.03,.06-.04,.13-.09,.25-.18,.39-.26,.04-.03,.08-.05,.12-.08,.03-.02,.06-.03,.09-.05,.11-.06,.23-.13,.35-.19,.05-.03,.11-.05,.16-.08,.05-.02,.09-.04,.14-.06,.1-.04,.2-.08,.3-.12,.06-.02,.13-.05,.19-.07,.06-.02,.13-.04,.2-.06,.08-.02,.17-.05,.25-.07,.07-.02,.14-.04,.21-.05,.07-.01,.13-.02,.2-.03,.09-.02,.18-.03,.27-.05,.07,0,.13-.02,.2-.03,.23-.02,.46-.04,.69-.04s.47,.01,.69,.04c.07,0,.13,.02,.2,.03,.09,.01,.18,.03,.27,.05,.07,.01,.13,.02,.2,.03,.07,.02,.14,.04,.21,.05,.08,.02,.17,.05,.25,.07,.07,.02,.13,.03,.2,.06,.06,.02,.13,.05,.19,.07,.1,.04,.2,.08,.3,.12,.05,.02,.09,.04,.14,.06,.05,.02,.11,.05,.16,.08,.12,.06,.23,.12,.35,.19,.03,.02,.06,.03,.09,.05,.04,.02,.08,.05,.12,.08,.13,.08,.26,.17,.39,.26,.02,.01,.04,.03,.06,.04,.03,.02,.06,.04,.08,.06,.12,.09,.24,.2,.35,.3,.03,.03,.07,.05,.1,.08,.02,.01,.03,.03,.04,.04,.12,.11,.23,.23,.34,.35,.04,.04,.08,.08,.12,.12,.98,1.13,1.57,2.6,1.57,4.22,0,3.56-2.89,6.45-6.45,6.45"/><path class="cls-4" d="M194.11,158.93h-4.5c-.63,.04-.83,.36-.88,.64v1.69c-1.61-2.33-4.75-2.78-6.09-2.78-5.33,0-10.66,4.17-10.66,10.89s5.33,10.89,10.66,10.89c1.61,0,4.75-.76,6.09-2.78v1.64c.02,.26,.15,.74,.86,.74h4.59s.72-.02,.73-.87v-19.02c.05-.94-.59-1.02-.8-1.03m-5.8,12.71c-.85,1.77-2.65,3-4.75,3-2.91,0-5.27-2.36-5.27-5.27s2.36-5.27,5.27-5.27c2.1,0,3.9,1.23,4.75,3,.33,.65,.52,1.41,.52,2.27s-.19,1.62-.52,2.27"/><rect class="cls-4" x="174.79" y="185.08" width="20.12" height="5.89"/></g></g></g></svg>