<?xml version="1.0" encoding="UTF-8"?><svg id="Layer_2" xmlns="http://www.w3.org/2000/svg" viewBox="0 0 158 158"><defs><style>.cls-1{fill:#fff;}</style></defs><g id="Main_page"><path class="cls-1" d="M79,0C35.37,0,0,35.37,0,79s35.37,79,79,79,79-35.37,79-79S122.63,0,79,0Zm42.74,33.62l4.67,4.67-19.64,19.64-4.67-4.67,19.64-19.64Zm-46.14-12.62h6.61v27.77h-6.61V21ZM17.75,75.7l.81-6.56,27.56,3.41-.81,6.56-27.56-3.41Zm9.63,37.96l-3.25-5.75,24.18-13.66,3.25,5.75-24.18,13.66Zm6.21-75.38l4.67-4.67,19.64,19.64-4.67,4.67-19.64-19.64Zm71.54,40.58c.18,6.37-1.99,12.54-6.1,17.36-2.73,3.21-4.72,7.07-5.76,11.14v.03c-.26,.97-.47,2.02-.63,3.12l-1.99,14.01c-.14,4.89-4.17,8.83-9.1,8.83h-4.19c-4.93,0-8.96-3.94-9.1-8.83l-1.96-13.84-.12-.72-.5-2.38c-1.05-4.2-3.01-8.08-5.78-11.32-3.96-4.63-6.14-10.56-6.14-16.67,0-6.94,2.72-13.43,7.66-18.3,4.94-4.87,11.48-7.49,18.42-7.38,13.56,.19,24.91,11.39,25.28,24.95h0Zm25.5,34.8l-24.18-13.66,3.25-5.75,24.18,13.66-3.25,5.75Zm-17.93-34.56l-.81-6.56,27.56-3.41,.81,6.56-27.56,3.41Z"/></g></svg>