<?xml version="1.0" encoding="UTF-8"?><svg id="Layer_2" xmlns="http://www.w3.org/2000/svg" viewBox="0 0 526.98 207.5"><defs><style>.cls-1{letter-spacing:-.01em;}.cls-2{letter-spacing:-.01em;}.cls-3{stroke:#f1b445;stroke-width:3.89px;}.cls-3,.cls-4,.cls-5,.cls-6,.cls-7{fill:none;stroke-miterlimit:10;}.cls-8{letter-spacing:0em;}.cls-4{stroke:#2a3f5d;}.cls-4,.cls-5{stroke-width:.83px;}.cls-5{stroke:#507467;}.cls-9{fill:#e4816b;}.cls-10{fill:#fff;}.cls-11{fill:#f0b445;}.cls-12{fill:#2a3f5d;}.cls-13{fill:#5dbfe0;}.cls-14{fill:#507467;}.cls-15{letter-spacing:-.01em;}.cls-16{letter-spacing:-.05em;}.cls-6{stroke:#69b46b;stroke-width:5px;}.cls-17{letter-spacing:0em;}.cls-18{letter-spacing:0em;}.cls-19{font-family:SofiaPro-Regular, 'Sofia Pro';font-size:14px;}.cls-19,.cls-20,.cls-21{fill:#515251;}.cls-20{font-size:10.97px;}.cls-20,.cls-21{font-family:SofiaPro-Bold, 'Sofia Pro';}.cls-22{letter-spacing:-.02em;}.cls-23{letter-spacing:-.02em;}.cls-24{letter-spacing:0em;}.cls-25{letter-spacing:0em;}.cls-26{letter-spacing:0em;}.cls-27{letter-spacing:0em;}.cls-21{font-size:19.35px;}.cls-28{letter-spacing:0em;}.cls-29{letter-spacing:0em;}.cls-7{stroke:#e4816b;stroke-width:1px;}.cls-30{letter-spacing:-.03em;}.cls-31{letter-spacing:-.03em;}.cls-32{letter-spacing:-.03em;}</style></defs><g id="lottie_designs"><text class="cls-19" transform="translate(301.98 51.6)"><tspan x="0" y="0">O</tspan><tspan class="cls-15" x="11.13" y="0">v</tspan><tspan x="18.02" y="0">e</tspan><tspan class="cls-31" x="25.86" y="0">r</tspan><tspan x="30.91" y="0" xml:space="preserve"> ou</tspan><tspan class="cls-30" x="50.6" y="0">r</tspan><tspan x="55.65" y="0" xml:space="preserve"> li</tspan><tspan class="cls-15" x="65.86" y="0">v</tspan><tspan x="72.74" y="0">es </tspan><tspan class="cls-27" x="90.21" y="0">w</tspan><tspan x="101.01" y="0">e ha</tspan><tspan class="cls-2" x="128.94" y="0">v</tspan><tspan x="135.83" y="0">e be</tspan><tspan class="cls-2" x="163.56" y="0">c</tspan><tspan x="170.48" y="0">ome </tspan><tspan x="0" y="16.8">habitua</tspan><tspan class="cls-28" x="49.43" y="16.8">t</tspan><tspan x="53.79" y="16.8">ed </tspan><tspan class="cls-1" x="73.68" y="16.8">t</tspan><tspan x="78.04" y="16.8">o behaving in </tspan><tspan class="cls-15" x="167.98" y="16.8">c</tspan><tspan x="174.9" y="16.8">er</tspan><tspan class="cls-28" x="188.16" y="16.8">t</tspan><tspan x="192.51" y="16.8">ain </tspan><tspan class="cls-27" x="0" y="33.6">w</tspan><tspan x="10.79" y="33.6">a</tspan><tspan class="cls-28" x="19.29" y="33.6">y</tspan><tspan x="26.18" y="33.6">s and </tspan><tspan class="cls-28" x="64.41" y="33.6">t</tspan><tspan x="68.77" y="33.6">o seeing the </tspan><tspan class="cls-27" x="149.53" y="33.6">w</tspan><tspan x="160.33" y="33.6">orld f</tspan><tspan class="cls-22" x="193.83" y="33.6">r</tspan><tspan x="199.02" y="33.6">om </tspan><tspan x="0" y="50.4">a particula</tspan><tspan class="cls-30" x="69.26" y="50.4">r</tspan><tspan x="74.31" y="50.4" xml:space="preserve"> pe</tspan><tspan class="cls-8" x="94.21" y="50.4">r</tspan><tspan x="99.54" y="50.4">specti</tspan><tspan class="cls-15" x="136.89" y="50.4">v</tspan><tspan class="cls-29" x="143.78" y="50.4">e</tspan><tspan x="151.6" y="50.4">. Changing </tspan><tspan x="0" y="67.2">these pat</tspan><tspan class="cls-28" x="59.36" y="67.2">t</tspan><tspan x="63.71" y="67.2">erns </tspan><tspan class="cls-23" x="94.65" y="67.2">r</tspan><tspan x="99.85" y="67.2">equi</tspan><tspan class="cls-22" x="127.58" y="67.2">r</tspan><tspan x="132.77" y="67.2">es </tspan><tspan class="cls-26" x="150.25" y="67.2">e</tspan><tspan class="cls-28" x="157.99" y="67.2">ff</tspan><tspan x="167.24" y="67.2">or</tspan><tspan class="cls-32" x="180.75" y="67.2">t</tspan><tspan x="184.87" y="67.2">, </tspan><tspan x="0" y="84">at</tspan><tspan class="cls-28" x="12.99" y="84">t</tspan><tspan x="17.35" y="84">e</tspan><tspan class="cls-18" x="25.19" y="84">n</tspan><tspan x="33.15" y="84">tion and i</tspan><tspan class="cls-18" x="92.6" y="84">n</tspan><tspan class="cls-1" x="100.56" y="84">t</tspan><tspan x="104.92" y="84">e</tspan><tspan class="cls-8" x="112.75" y="84">n</tspan><tspan x="120.72" y="84">tion.</tspan><tspan x="0" y="100.8"> </tspan><tspan class="cls-16" x="0" y="117.6">W</tspan><tspan x="11.98" y="117.6">e en</tspan><tspan class="cls-15" x="39.25" y="117.6">c</tspan><tspan x="46.17" y="117.6">ou</tspan><tspan class="cls-22" x="62.31" y="117.6">r</tspan><tspan x="67.51" y="117.6">age p</tspan><tspan class="cls-22" x="104.41" y="117.6">r</tspan><tspan x="109.6" y="117.6">acti</tspan><tspan class="cls-15" x="133.01" y="117.6">c</tspan><tspan x="139.93" y="117.6">es in </tspan><tspan x="0" y="134.4">particula</tspan><tspan class="cls-30" x="57.22" y="134.4">r</tspan><tspan x="62.27" y="134.4" xml:space="preserve"> tha</tspan><tspan class="cls-24" x="86.86" y="134.4">t</tspan><tspan x="91.34" y="134.4" xml:space="preserve"> suppor</tspan><tspan class="cls-24" x="139.55" y="134.4">t</tspan><tspan x="144.03" y="134.4"> </tspan><tspan class="cls-15" x="147.57" y="134.4">c</tspan><tspan x="154.49" y="134.4">e</tspan><tspan class="cls-18" x="162.33" y="134.4">n</tspan><tspan class="cls-28" x="170.29" y="134.4">t</tspan><tspan x="174.65" y="134.4">ering, </tspan><tspan x="0" y="151.2">health and </tspan><tspan class="cls-28" x="72.41" y="151.2">t</tspan><tspan x="76.76" y="151.2">eam per</tspan><tspan class="cls-1" x="130.73" y="151.2">f</tspan><tspan x="135.2" y="151.2">orman</tspan><tspan class="cls-2" x="177.57" y="151.2">c</tspan><tspan class="cls-29" x="184.49" y="151.2">e</tspan><tspan x="192.32" y="151.2">.</tspan></text><text class="cls-21" transform="translate(0 16.34)"><tspan class="cls-25" x="0" y="0">S</tspan><tspan x="11.19" y="0">ix Living </tspan><tspan class="cls-17" x="88.68" y="0">P</tspan><tspan x="100.53" y="0">rinciples</tspan></text><g><text class="cls-20" transform="translate(.05 112.96)"><tspan x="0" y="0">AWARENESS</tspan></text><text class="cls-20" transform="translate(101.83 112.96)"><tspan x="0" y="0">CHOICE</tspan></text><text class="cls-20" transform="translate(169.07 112.96)"><tspan x="0" y="0">ACCOUNTABILITY</tspan></text><text class="cls-20" transform="translate(6.26 204.18)"><tspan x="0" y="0">HONESTY</tspan></text><text class="cls-20" transform="translate(96.37 204.18)"><tspan x="0" y="0">INTEGRITY</tspan></text><text class="cls-20" transform="translate(199.88 204.18)"><tspan x="0" y="0">TRUST</tspan></text><path class="cls-10" d="M59.29,70.58c0,15.5-12.57,28.07-28.07,28.07S3.15,86.08,3.15,70.58s12.57-28.07,28.07-28.07,28.07,12.57,28.07,28.07"/><path class="cls-10" d="M151.42,69.85c0,15.5-12.57,28.07-28.07,28.07s-28.07-12.57-28.07-28.07,12.57-28.07,28.07-28.07,28.07,12.57,28.07,28.07"/><path class="cls-10" d="M243.55,69.85c0,15.5-12.57,28.07-28.07,28.07s-28.07-12.57-28.07-28.07,12.57-28.07,28.07-28.07,28.07,12.57,28.07,28.07"/><path class="cls-10" d="M59.79,161.26c0,15.5-12.57,28.07-28.07,28.07s-28.07-12.57-28.07-28.07,12.57-28.07,28.07-28.07,28.07,12.57,28.07,28.07"/><path class="cls-10" d="M151.92,161.08c0,15.5-12.57,28.07-28.07,28.07s-28.07-12.57-28.07-28.07,12.57-28.07,28.07-28.07,28.07,12.57,28.07,28.07"/><path class="cls-10" d="M243.98,161.08c0,15.5-12.57,28.07-28.07,28.07s-28.07-12.57-28.07-28.07,12.57-28.07,28.07-28.07,28.07,12.57,28.07,28.07"/><path class="cls-11" d="M32.46,60.15h-2.47c-.25,0-.45-.2-.45-.45v-11.04c0-.2,.16-.36,.36-.36h2.65c.2,0,.36,.16,.36,.36v11.04c0,.25-.2,.45-.45,.45"/><path class="cls-11" d="M32.46,92.86h-2.47c-.25,0-.45-.2-.45-.45v-11.04c0-.2,.16-.36,.36-.36h2.65c.2,0,.36,.16,.36,.36v11.04c0,.25-.2,.45-.45,.45"/><circle class="cls-3" cx="31.22" cy="70.51" r="5.62"/><path class="cls-11" d="M20.79,69.34v2.47c0,.25-.2,.45-.45,.45H9.3c-.2,0-.36-.16-.36-.36v-2.65c0-.2,.16-.36,.36-.36h11.04c.25,0,.45,.2,.45,.45"/><path class="cls-11" d="M53.5,69.34v2.47c0,.25-.2,.45-.45,.45h-11.04c-.2,0-.36-.16-.36-.36v-2.65c0-.2,.16-.36,.36-.36h11.04c.25,0,.45,.2,.45,.45"/><path class="cls-11" d="M24.77,62.31l-1.75,1.75c-.18,.18-.46,.18-.64,0l-4.71-4.71c-.14-.14-.14-.37,0-.51l1.87-1.87c.14-.14,.37-.14,.51,0l4.71,4.71c.18,.18,.18,.46,0,.64"/><path class="cls-11" d="M23.02,76.96l1.75,1.75c.18,.18,.18,.46,0,.64l-4.71,4.71c-.14,.14-.37,.14-.51,0l-1.87-1.87c-.14-.14-.14-.37,0-.51l4.71-4.71c.18-.18,.46-.18,.64,0"/><path class="cls-11" d="M37.67,78.71l1.75-1.75c.18-.18,.46-.18,.64,0l4.71,4.71c.14,.14,.14,.37,0,.51l-1.87,1.87c-.14,.14-.37,.14-.51,0l-4.71-4.71c-.18-.18-.18-.46,0-.64"/><path class="cls-11" d="M39.42,64.06l-1.75-1.75c-.18-.18-.18-.46,0-.64l4.71-4.71c.14-.14,.37-.14,.51,0l1.87,1.87c.14,.14,.14,.37,0,.51l-4.71,4.71c-.18,.18-.46,.18-.64,0"/><path class="cls-13" d="M129.32,52.81h7.97c.43,0,.77,.35,.77,.77v7.97c0,.42-.51,.63-.81,.33l-8.27-8.27c-.3-.3-.09-.81,.33-.81"/><path class="cls-13" d="M123.81,90.06h0c-7.43,0-13.48-6.04-13.5-13.46-.02-.59,0-3.98,2.5-7.53,1.37-1.94,3.76-4,7.27-6.26l-9.05-5.52c-.37-.22-.48-.7-.26-1.07l1.21-1.98c.22-.37,.7-.48,1.07-.26l10.78,6.57,12.03-7.02,1.94,3.36-10.21,5.97c3.47,2.24,5.84,4.29,7.2,6.22,2.51,3.55,2.52,6.95,2.5,7.53-.02,7.43-6.07,13.46-13.5,13.46m0-25.01c-3.94,2.37-6.57,4.47-7.83,6.25-1.88,2.66-1.8,5.06-1.8,5.16v.06s0,.04,0,.04c0,5.3,4.31,9.62,9.62,9.62,5.3,0,9.62-4.32,9.62-9.62v-.12c0-.08,.09-2.48-1.79-5.14-1.25-1.77-3.88-3.87-7.83-6.25"/><path class="cls-9" d="M205.95,88.43V53.49c0-.28,.22-.5,.5-.5h2.73c.28,0,.5,.22,.5,.5l-.02,27.9,17.59-17.59h-12.01v-3.35h18.52c.72,0,1.09,.88,.58,1.39l-27.12,27.12c-.47,.47-1.26,.14-1.26-.52"/><path class="cls-7" d="M205.95,88.43V53.49c0-.28,.22-.5,.5-.5h2.73c.28,0,.5,.22,.5,.5l-.02,27.9,17.59-17.59h-12.01v-3.35h18.52c.72,0,1.09,.88,.58,1.39l-27.12,27.12c-.47,.47-1.26,.14-1.26-.52Z"/><path class="cls-9" d="M216.29,65.92l-3.7-3.7c-.09-.09-.09-.22,0-.31l3.7-3.7c.14-.14,.37-.04,.37,.15v7.4c0,.19-.23,.29-.37,.15"/><path class="cls-7" d="M216.29,65.92l-3.7-3.7c-.09-.09-.09-.22,0-.31l3.7-3.7c.14-.14,.37-.04,.37,.15v7.4c0,.19-.23,.29-.37,.15Z"/><path class="cls-12" d="M113.82,174.53h-2.85c-.29,0-.52-.23-.52-.52v-26.45c0-.23,.19-.42,.42-.42h3.06c.23,0,.42,.19,.42,.42v26.45c0,.29-.23,.52-.52,.52"/><path class="cls-4" d="M113.82,174.53h-2.85c-.29,0-.52-.23-.52-.52v-26.45c0-.23,.19-.42,.42-.42h3.06c.23,0,.42,.19,.42,.42v26.45c0,.29-.23,.52-.52,.52Z"/><path class="cls-12" d="M125.21,174.53h-2.85c-.29,0-.52-.23-.52-.52v-26.45c0-.23,.19-.42,.42-.42h3.06c.23,0,.42,.19,.42,.42v26.45c0,.29-.23,.52-.52,.52"/><path class="cls-4" d="M125.21,174.53h-2.85c-.29,0-.52-.23-.52-.52v-26.45c0-.23,.19-.42,.42-.42h3.06c.23,0,.42,.19,.42,.42v26.45c0,.29-.23,.52-.52,.52Z"/><path class="cls-12" d="M136.6,174.53h-2.85c-.29,0-.52-.23-.52-.52v-26.45c0-.23,.19-.42,.42-.42h3.06c.23,0,.42,.19,.42,.42v26.45c0,.29-.23,.52-.52,.52"/><path class="cls-4" d="M136.6,174.53h-2.85c-.29,0-.52-.23-.52-.52v-26.45c0-.23,.19-.42,.42-.42h3.06c.23,0,.42,.19,.42,.42v26.45c0,.29-.23,.52-.52,.52Z"/><circle class="cls-6" cx="31.72" cy="161.26" r="16.8" transform="translate(-59.3 24.42) rotate(-22.5)"/><path class="cls-14" d="M202.22,162.5v-2.85c0-.29,.23-.52,.52-.52h26.45c.23,0,.42,.19,.42,.42v3.06c0,.23-.19,.42-.42,.42h-26.45c-.29,0-.52-.23-.52-.52"/><path class="cls-5" d="M202.22,162.5v-2.85c0-.29,.23-.52,.52-.52h26.45c.23,0,.42,.19,.42,.42v3.06c0,.23-.19,.42-.42,.42h-26.45c-.29,0-.52-.23-.52-.52Z"/></g></g></svg>