<?xml version="1.0" encoding="UTF-8"?><svg id="Layer_2" xmlns="http://www.w3.org/2000/svg" viewBox="0 0 158 158"><defs><style>.cls-1{fill:#fff;}</style></defs><g id="Main_page"><path class="cls-1" d="M79,0C35.37,0,0,35.37,0,79s35.37,79,79,79,79-35.37,79-79S122.63,0,79,0Zm-30.94,127.67c-7.83,0-14.18-6.35-14.18-14.18s6.35-14.18,14.18-14.18,14.18,6.35,14.18,14.18-6.35,14.18-14.18,14.18Zm49.32-11.27h-29.98v-5.82h29.98c7.46,0,13.53-6.07,13.53-13.53s-6.07-13.53-13.53-13.53H60.63c-10.67,0-19.35-8.68-19.35-19.35s8.68-19.35,19.35-19.35h20.98l-8.57-8.57,4.12-4.12,15.67,15.67-15.16,15.15-4.12-4.12,8.2-8.2h-21.13c-7.46,0-13.53,6.07-13.53,13.53s6.07,13.53,13.53,13.53h36.75c10.67,0,19.35,8.68,19.35,19.35s-8.68,19.35-19.35,19.35Zm16.44-53.2c-7.83,0-14.18-6.35-14.18-14.18s6.35-14.18,14.18-14.18,14.18,6.35,14.18,14.18-6.35,14.18-14.18,14.18Z"/></g></svg>