<?xml version="1.0" encoding="UTF-8"?><svg id="Layer_2" xmlns="http://www.w3.org/2000/svg" viewBox="0 0 158 158"><defs><style>.cls-1{fill:#fff;}</style></defs><g id="Main_page"><path class="cls-1" d="M79,0C35.37,0,0,35.37,0,79s35.37,79,79,79,79-35.37,79-79S122.63,0,79,0Zm32.98,103.02c-3.14,14.06-8.97,22.33-14.83,27.21,1.1-6.67,1.86-24.55-18.02-36.73,0,0-21.53,9.68-14.35,39.27-23.74-12.57-19.55-44.99-19.55-44.99,5.71-42.28,43.73-61.42,43.73-61.42,0,0-3.07,9.11-.46,21.04,3.77,14.95,11.28,24.69,11.28,24.69,0,.02,.02,.04,.03,.06h0s.03,.03,.05,.05c.12,.19,.49,.75,1,1.33h0c1.14,1.29,2.99,2.7,4.5,.47,.73-1.38,1.2-3.4,.9-6.42,0,0,4.86,5.71,5.71,12.86,2.29,12.57,0,22.57,0,22.57Z"/></g></svg>