<?xml version="1.0" encoding="UTF-8"?><svg id="Layer_2" xmlns="http://www.w3.org/2000/svg" viewBox="0 0 640.99 279.2"><defs><style>.cls-1{letter-spacing:0em;}.cls-1,.cls-2,.cls-3,.cls-4,.cls-5,.cls-6,.cls-7,.cls-8,.cls-9,.cls-10,.cls-11,.cls-12{font-family:SofiaPro-Bolditalic, 'Sofia Pro';font-style:italic;}.cls-2{letter-spacing:0em;}.cls-3{letter-spacing:0em;}.cls-13,.cls-14,.cls-15,.cls-16,.cls-17,.cls-18,.cls-19,.cls-20{font-family:SofiaProRegular, 'Sofia Pro';}.cls-13,.cls-21,.cls-11{letter-spacing:0em;}.cls-14{letter-spacing:-.02em;}.cls-22{letter-spacing:-.01em;}.cls-4,.cls-23{letter-spacing:-.01em;}.cls-24{letter-spacing:-.02em;}.cls-25{letter-spacing:0em;}.cls-15,.cls-26{letter-spacing:-.01em;}.cls-27,.cls-16{letter-spacing:0em;}.cls-28{fill:#f47c64;}.cls-29,.cls-30{fill:#fff;}.cls-31{fill:#fcb31f;}.cls-32{fill:#28c2e5;}.cls-33{fill:#4ab862;}.cls-34{letter-spacing:0em;}.cls-35,.cls-9{letter-spacing:0em;}.cls-36{letter-spacing:-.01em;}.cls-37{letter-spacing:0em;}.cls-38{fill:#515251;font-size:15.73px;}.cls-39{letter-spacing:0em;}.cls-40{letter-spacing:-.01em;}.cls-5{letter-spacing:0em;}.cls-41,.cls-19{letter-spacing:-.03em;}.cls-42,.cls-18,.cls-12{letter-spacing:-.01em;}.cls-7{letter-spacing:-.02em;}.cls-8{letter-spacing:0em;}.cls-17,.cls-43{letter-spacing:0em;}.cls-44{letter-spacing:0em;}.cls-45{letter-spacing:-.01em;}.cls-46{letter-spacing:-.05em;}.cls-10{letter-spacing:-.02em;}.cls-30{font-family:SofiaPro-Bold, 'Sofia Pro';font-size:13px;}.cls-47{letter-spacing:-.02em;}.cls-48{letter-spacing:-.01em;}.cls-49{letter-spacing:0em;}.cls-50{letter-spacing:-.03em;}</style></defs><g id="lottie_designs"><g><g><polygon class="cls-28" points="227.02 62.2 114.82 124.39 2.63 62.2 114.82 0 227.02 62.2"/><polygon class="cls-32" points="0 69.31 109.09 134.81 109.65 265.09 .56 197.59 0 69.31"/><polygon class="cls-31" points="229.65 69.31 120.56 134.81 120 265.09 229.09 197.59 229.65 69.31"/></g><polygon class="cls-33" points="146.72 130.2 114.82 94.47 82.92 130.2 100.32 130.2 100.32 279.2 129.32 279.2 129.32 130.2 146.72 130.2"/><text class="cls-30" transform="translate(20.76 164.37)"><tspan class="cls-40" x="0" y="0">S</tspan><tspan x="7.42" y="0">tructu</tspan><tspan class="cls-36" x="44" y="0">r</tspan><tspan x="49.2" y="0">al</tspan><tspan class="cls-25" x="5.67" y="12">S</tspan><tspan class="cls-44" x="13.12" y="12">y</tspan><tspan class="cls-37" x="19.67" y="12">s</tspan><tspan class="cls-25" x="25.67" y="12">t</tspan><tspan x="30.24" y="12">ems</tspan></text><text class="cls-30" transform="translate(98.01 56.37)"><tspan x="0" y="0">High </tspan><tspan class="cls-24" x="-25.3" y="12">P</tspan><tspan x="-17.54" y="12">er</tspan><tspan class="cls-34" x="-4.87" y="12">f</tspan><tspan x="-.25" y="12">orman</tspan><tspan class="cls-25" x="39.47" y="12">c</tspan><tspan x="46.09" y="12">e</tspan></text><text class="cls-30" transform="translate(139.27 164.37)"><tspan class="cls-49" x="0" y="0">M</tspan><tspan x="11.96" y="0">anageme</tspan><tspan class="cls-39" x="69.45" y="0">n</tspan><tspan x="76.93" y="0">t </tspan><tspan class="cls-39" x="9.69" y="12">P</tspan><tspan class="cls-22" x="17.64" y="12">r</tspan><tspan x="22.84" y="12">acti</tspan><tspan class="cls-25" x="45.66" y="12">c</tspan><tspan x="52.27" y="12">es/</tspan><tspan class="cls-39" x="10.79" y="24">P</tspan><tspan class="cls-22" x="18.75" y="24">r</tspan><tspan x="23.95" y="24">o</tspan><tspan class="cls-25" x="31.43" y="24">c</tspan><tspan x="38.05" y="24">esses</tspan></text><g><path class="cls-29" d="M119.58,245.72l-5.55,.65,4.54,2.18v1.42l-4.54,2.21,5.55,.65v1.85l-8.96-1.1v-1.53l5.88-2.77-5.88-2.74v-1.56l8.96-1.09v1.85Z"/><path class="cls-29" d="M116.54,242.85c-1.92,0-3.17-1.53-3.17-3.26s1.25-3.26,3.17-3.26,3.16,1.53,3.16,3.26-1.25,3.26-3.16,3.26Zm0-4.8c-.95,0-1.59,.69-1.59,1.53s.64,1.53,1.59,1.53,1.57-.69,1.57-1.53-.64-1.53-1.57-1.53Z"/><path class="cls-29" d="M116.54,235.36c-1.92,0-3.17-1.53-3.17-3.26s1.25-3.26,3.17-3.26,3.16,1.53,3.16,3.26-1.25,3.26-3.16,3.26Zm0-4.8c-.95,0-1.59,.69-1.59,1.53s.64,1.53,1.59,1.53,1.57-.69,1.57-1.53-.64-1.53-1.57-1.53Z"/><path class="cls-29" d="M110.28,221.23h9.3v1.7h-.75c.6,.43,.87,1.27,.87,1.95,0,1.56-1.21,2.98-3.16,2.98s-3.16-1.42-3.16-2.98c0-.7,.26-1.52,.87-1.95h-3.97v-1.7Zm6.25,1.75c-.94,0-1.56,.78-1.56,1.57,0,.86,.66,1.57,1.56,1.57s1.57-.72,1.57-1.57-.65-1.57-1.57-1.57Z"/><path class="cls-29" d="M116.54,216.8c-1.92,0-3.17-1.53-3.17-3.26s1.25-3.26,3.17-3.26,3.16,1.53,3.16,3.26-1.25,3.26-3.16,3.26Zm0-4.8c-.95,0-1.59,.69-1.59,1.53s.64,1.53,1.59,1.53,1.57-.69,1.57-1.53-.64-1.53-1.57-1.53Z"/><path class="cls-29" d="M113.13,206.75h.39v-1.33h1.31v1.33h4.75v1.7h-4.75v1.14h-1.31v-1.14h-.38c-1.82,0-2.86-.94-2.86-2.67v-.73h1.59v.39c0,.97,.53,1.29,1.26,1.3Z"/><path class="cls-29" d="M117.43,196.54v3.35l2.15,.71v1.92l-8.96-3.34v-1.95l8.96-3.33v1.9l-2.15,.73Zm-1.57,.55l-3.37,1.14,3.37,1.13v-2.27Z"/><path class="cls-29" d="M116.25,183.41h3.33v1.72h-3.2c-.95,0-1.34,.49-1.34,1.09-.01,.68,.42,1.16,1.33,1.2h3.21v1.7h-3.21c-.95,0-1.33,.49-1.33,1.07,0,.61,.29,1.23,1.38,1.23h3.16v1.7h-6.06v-1.7h1.08c-.83-.18-1.24-1.04-1.24-1.72,0-.9,.43-1.6,1.17-1.95-.88-.47-1.17-1.4-1.17-2.03,0-1.52,1.07-2.31,2.89-2.31Z"/><path class="cls-29" d="M116.54,175.16c1.95,0,3.16,1.42,3.16,2.98,0,.69-.26,1.52-.87,1.95h.75v1.7h-9.3v-1.7h3.97c-.61-.43-.87-1.26-.87-1.95,0-1.56,1.21-2.98,3.16-2.98Zm0,1.74c-.9,0-1.56,.7-1.56,1.56,0,.79,.62,1.57,1.56,1.57s1.57-.74,1.57-1.57-.69-1.56-1.57-1.56Z"/><path class="cls-29" d="M111.41,174.05c-.57,0-1.01-.49-1.01-1.08s.44-1.08,1.01-1.08,1.03,.48,1.03,1.08-.46,1.08-1.03,1.08Zm2.11-.23v-1.7h6.06v1.7h-6.06Z"/><path class="cls-29" d="M114.83,166.82v1.29h4.75v1.7h-4.75v1.11h-1.31v-1.11h-2.22v-1.7h2.22v-1.29h1.31Z"/><path class="cls-29" d="M111.41,165.95c-.57,0-1.01-.49-1.01-1.08s.44-1.08,1.01-1.08,1.03,.48,1.03,1.08-.46,1.08-1.03,1.08Zm2.11-.23v-1.7h6.06v1.7h-6.06Z"/><path class="cls-29" d="M116.54,162.68c-1.92,0-3.17-1.53-3.17-3.26s1.25-3.26,3.17-3.26,3.16,1.53,3.16,3.26-1.25,3.26-3.16,3.26Zm0-4.8c-.95,0-1.59,.69-1.59,1.53s.64,1.53,1.59,1.53,1.57-.69,1.57-1.53-.64-1.53-1.57-1.53Z"/><path class="cls-29" d="M116.25,148.88h3.33v1.7h-3.15c-.96,0-1.39,.57-1.39,1.16s.32,1.36,1.43,1.36h3.11v1.7h-6.06v-1.7h1.01c-.82-.26-1.17-1.22-1.17-1.82,0-1.59,1.07-2.42,2.89-2.41Z"/></g></g><g><text class="cls-38" transform="translate(263.65 40.99)"><tspan class="cls-2" x="0" y="0">H</tspan><tspan class="cls-6" x="10.94" y="0">igh </tspan><tspan class="cls-7" x="37.63" y="0">P</tspan><tspan class="cls-6" x="47" y="0">er</tspan><tspan class="cls-4" x="62.33" y="0">f</tspan><tspan class="cls-6" x="67.88" y="0">orman</tspan><tspan class="cls-3" x="115.92" y="0">c</tspan><tspan class="cls-6" x="123.95" y="0">e: </tspan><tspan class="cls-20" x="141.02" y="0">Alignme</tspan><tspan class="cls-13" x="199.55" y="0">n</tspan><tspan class="cls-20" x="208.5" y="0">t and</tspan><tspan class="cls-14" x="245.69" y="0"> </tspan><tspan class="cls-17" x="249.27" y="0">A</tspan><tspan class="cls-20" x="258.94" y="0">ttuneme</tspan><tspan class="cls-13" x="318.51" y="0">n</tspan><tspan class="cls-19" x="327.46" y="0">t</tspan><tspan class="cls-20" x="332.08" y="0">.</tspan></text><text class="cls-38" transform="translate(263.65 79.32)"><tspan class="cls-1" x="0" y="0">M</tspan><tspan class="cls-6" x="14.42" y="0">ood </tspan><tspan class="cls-9" x="45.93" y="0">o</tspan><tspan class="cls-11" x="54.85" y="0">f</tspan><tspan class="cls-10" x="60.48" y="0"> </tspan><tspan class="cls-6" x="63.84" y="0">Ambition: </tspan><tspan class="cls-20" x="137.83" y="0">Dynamic is c</tspan><tspan class="cls-18" x="227.83" y="0">r</tspan><tspan class="cls-20" x="233.69" y="0">ea</tspan><tspan class="cls-17" x="252.03" y="0">t</tspan><tspan class="cls-20" x="256.92" y="0">ed </tspan><tspan class="cls-17" x="279.23" y="0">t</tspan><tspan class="cls-20" x="284.12" y="0">o support </tspan><tspan class="cls-20"><tspan class="cls-26" x="0" y="15.73">c</tspan><tspan x="7.78" y="15.73">o</tspan><tspan class="cls-43" x="16.87" y="15.73">n</tspan><tspan class="cls-26" x="25.76" y="15.73">v</tspan><tspan x="33.5" y="15.73">e</tspan><tspan class="cls-21" x="42.27" y="15.73">r</tspan><tspan x="48.26" y="15.73">sations </tspan><tspan class="cls-35" x="102.43" y="15.73">o</tspan><tspan class="cls-47" x="111.38" y="15.73">f</tspan><tspan x="116.29" y="15.73" xml:space="preserve"> alignme</tspan><tspan class="cls-21" x="178.53" y="15.73">n</tspan><tspan class="cls-41" x="187.47" y="15.73">t</tspan><tspan x="192.1" y="15.73">, trust and learning </tspan></tspan><tspan class="cls-20"><tspan x="0" y="31.45">individually and </tspan><tspan class="cls-26" x="117.42" y="31.45">c</tspan><tspan x="125.2" y="31.45">ollecti</tspan><tspan class="cls-26" x="167.31" y="31.45">v</tspan><tspan x="175.05" y="31.45">el</tspan><tspan class="cls-46" x="187.57" y="31.45">y</tspan><tspan x="194.66" y="31.45">.</tspan></tspan></text><text class="cls-38" transform="translate(263.65 146.15)"><tspan class="cls-4" x="0" y="0">S</tspan><tspan class="cls-6" x="8.98" y="0">tructu</tspan><tspan class="cls-12" x="53.21" y="0">r</tspan><tspan class="cls-6" x="59.46" y="0">al </tspan><tspan class="cls-8" x="76.99" y="0">S</tspan><tspan class="cls-1" x="86" y="0">y</tspan><tspan class="cls-5" x="93.91" y="0">s</tspan><tspan class="cls-4" x="101.16" y="0">t</tspan><tspan class="cls-6" x="106.65" y="0">ems and G</tspan><tspan class="cls-4" x="184.39" y="0">ov</tspan><tspan class="cls-6" x="201.27" y="0">ernan</tspan><tspan class="cls-3" x="244.56" y="0">c</tspan><tspan class="cls-6" x="252.58" y="0">e: </tspan><tspan class="cls-20" x="269.66" y="0">Decision </tspan><tspan class="cls-20"><tspan x="0" y="15.73">making, st</tspan><tspan class="cls-42" x="73" y="15.73">r</tspan><tspan x="78.86" y="15.73">a</tspan><tspan class="cls-43" x="88.42" y="15.73">t</tspan><tspan x="93.31" y="15.73">egy and </tspan><tspan class="cls-48" x="155.66" y="15.73">s</tspan><tspan class="cls-23" x="162.31" y="15.73">y</tspan><tspan x="170.04" y="15.73">s</tspan><tspan class="cls-43" x="176.89" y="15.73">t</tspan><tspan x="181.78" y="15.73">ems support sha</tspan><tspan class="cls-45" x="299.91" y="15.73">r</tspan><tspan class="cls-27" x="305.78" y="15.73">ed </tspan></tspan><tspan class="cls-20"><tspan x="0" y="31.45">vision</tspan><tspan class="cls-50" x="40.4" y="31.45">/</tspan><tspan x="47.49" y="31.45">prupose and </tspan><tspan class="cls-42" x="142.58" y="31.45">r</tspan><tspan x="148.44" y="31.45">olls.</tspan></tspan></text><text class="cls-38" transform="translate(263.65 213.97)"><tspan class="cls-1" x="0" y="0">P</tspan><tspan class="cls-12" x="9.58" y="0">r</tspan><tspan class="cls-6" x="15.82" y="0">acti</tspan><tspan class="cls-1" x="43.42" y="0">c</tspan><tspan class="cls-6" x="51.44" y="0">es: </tspan><tspan class="cls-20" x="75.81" y="0">I</tspan><tspan class="cls-13" x="80.24" y="0">n</tspan><tspan class="cls-17" x="89.19" y="0">t</tspan><tspan class="cls-16" x="94.08" y="0">e</tspan><tspan class="cls-13" x="102.86" y="0">n</tspan><tspan class="cls-20" x="111.8" y="0">tional and </tspan><tspan class="cls-15" x="188.15" y="0">c</tspan><tspan class="cls-20" x="195.93" y="0">onsis</tspan><tspan class="cls-17" x="231.52" y="0">t</tspan><tspan class="cls-20" x="236.41" y="0">e</tspan><tspan class="cls-13" x="245.18" y="0">n</tspan><tspan class="cls-20" x="254.13" y="0">t p</tspan><tspan class="cls-18" x="272.72" y="0">r</tspan><tspan class="cls-20" x="278.58" y="0">acti</tspan><tspan class="cls-15" x="304.91" y="0">c</tspan><tspan class="cls-20" x="312.69" y="0">es </tspan><tspan class="cls-20"><tspan x="0" y="15.73">and p</tspan><tspan class="cls-42" x="41.7" y="15.73">r</tspan><tspan x="47.57" y="15.73">o</tspan><tspan class="cls-26" x="56.66" y="15.73">c</tspan><tspan x="64.44" y="15.73">esses </tspan><tspan class="cls-43" x="106.54" y="15.73">t</tspan><tspan x="111.43" y="15.73">o support desi</tspan><tspan class="cls-45" x="212.65" y="15.73">r</tspan><tspan x="218.52" y="15.73">ed individual and </tspan></tspan><tspan class="cls-20"><tspan class="cls-26" x="0" y="31.45">c</tspan><tspan x="7.78" y="31.45">ollecti</tspan><tspan class="cls-26" x="49.89" y="31.45">v</tspan><tspan x="57.63" y="31.45">e behavio</tspan><tspan class="cls-21" x="128.06" y="31.45">r</tspan><tspan x="134.05" y="31.45">s.</tspan></tspan></text></g></g></svg>