<?xml version="1.0" encoding="UTF-8"?><svg id="Layer_2" xmlns="http://www.w3.org/2000/svg" viewBox="0 0 484.3 252.86"><defs><style>.cls-1{fill:#f48336;}.cls-2{fill:#f47c64;}.cls-3{fill:#fcb31f;}.cls-4{fill:#d1d1d1;}.cls-5{fill:#3585c6;}.cls-6{fill:#28c2e5;}.cls-7{fill:#4ab862;}.cls-8{fill:#4b5eaa;}.cls-9{fill:none;stroke:#d1d1d1;stroke-miterlimit:10;stroke-width:4px;}</style></defs><g id="lottie_designs"><line class="cls-9" x1="266.03" x2="266.03" y2="252.86"/><g><path class="cls-7" d="M412.9,192.81c1.47-1.96,2.36-4.4,2.36-7.04,0-6.47-5.25-11.73-11.72-11.73s-11.73,5.25-11.73,11.73c0,2.65,.89,5.09,2.37,7.04-3.81,2.85-6.28,7.38-6.28,12.5,0,8.64,7.01,15.63,15.64,15.63s15.63-7,15.63-15.63c0-5.12-2.47-9.65-6.27-12.5"/><path class="cls-6" d="M347,156.63c1.47-1.96,2.36-4.4,2.36-7.04,0-6.48-5.25-11.73-11.72-11.73s-11.73,5.25-11.73,11.73c0,2.65,.89,5.09,2.37,7.04-3.81,2.85-6.28,7.38-6.28,12.5,0,8.64,7.01,15.63,15.64,15.63s15.63-7,15.63-15.63c0-5.12-2.47-9.65-6.27-12.5"/><path class="cls-3" d="M478.03,156.63c1.47-1.96,2.36-4.4,2.36-7.04,0-6.48-5.25-11.73-11.72-11.73s-11.73,5.25-11.73,11.73c0,2.65,.89,5.09,2.37,7.04-3.81,2.85-6.28,7.38-6.28,12.5,0,8.64,7.01,15.63,15.64,15.63s15.63-7,15.63-15.63c0-5.12-2.47-9.65-6.27-12.5"/><path class="cls-8" d="M347,89.45c1.47-1.96,2.36-4.4,2.36-7.04,0-6.47-5.25-11.73-11.72-11.73s-11.73,5.25-11.73,11.73c0,2.65,.89,5.09,2.37,7.04-3.81,2.85-6.28,7.38-6.28,12.5,0,8.64,7.01,15.63,15.64,15.63s15.63-7,15.63-15.63c0-5.12-2.47-9.66-6.27-12.5"/><path class="cls-1" d="M478.03,89.45c1.47-1.96,2.36-4.4,2.36-7.04,0-6.47-5.25-11.73-11.72-11.73s-11.73,5.25-11.73,11.73c0,2.65,.89,5.09,2.37,7.04-3.81,2.85-6.28,7.38-6.28,12.5,0,8.64,7.01,15.63,15.64,15.63s15.63-7,15.63-15.63c0-5.12-2.47-9.66-6.27-12.5"/><path class="cls-5" d="M412.9,121.75c1.47-1.96,2.36-4.4,2.36-7.04,0-6.47-5.25-11.73-11.72-11.73s-11.73,5.25-11.73,11.73c0,2.65,.89,5.09,2.37,7.04-3.81,2.85-6.28,7.38-6.28,12.5,0,8.64,7.01,15.63,15.64,15.63s15.63-7,15.63-15.63c0-5.12-2.47-9.65-6.27-12.5"/><path class="cls-2" d="M412.9,50.68c1.47-1.96,2.36-4.4,2.36-7.04,0-6.48-5.25-11.73-11.72-11.73s-11.73,5.25-11.73,11.73c0,2.65,.89,5.09,2.37,7.04-3.81,2.85-6.28,7.38-6.28,12.5,0,8.64,7.01,15.63,15.64,15.63s15.63-7,15.63-15.63c0-5.12-2.47-9.65-6.27-12.5"/><rect class="cls-4" x="349.43" y="78.37" width="39.68" height="2.75" transform="translate(-.62 156.58) rotate(-23.92)"/><rect class="cls-4" x="436.46" y="59.9" width="2.75" height="39.68" transform="translate(187.41 447.63) rotate(-66.08)"/><rect class="cls-4" x="367.89" y="169.61" width="2.75" height="39.68" transform="translate(46.37 450.19) rotate(-66.08)"/><rect class="cls-4" x="417.99" y="188.08" width="39.68" height="2.75" transform="translate(-39.21 193.8) rotate(-23.92)"/><rect class="cls-4" x="336.26" y="119.99" width="2.75" height="15.47"/><rect class="cls-4" x="467.29" y="119.99" width="2.75" height="15.47"/></g><g><path class="cls-4" d="M207.9,165.84c1.47-1.96,2.36-4.4,2.36-7.04,0-6.47-5.25-11.73-11.72-11.73s-11.73,5.25-11.73,11.73c0,2.65,.89,5.09,2.37,7.04-3.81,2.85-6.28,7.38-6.28,12.5,0,8.64,7.01,15.63,15.64,15.63s15.63-7,15.63-15.63c0-5.12-2.47-9.65-6.27-12.5"/><path class="cls-4" d="M25,145.66c1.47-1.96,2.36-4.4,2.36-7.04,0-6.48-5.25-11.73-11.72-11.73s-11.73,5.25-11.73,11.73c0,2.65,.89,5.09,2.37,7.04-3.81,2.85-6.28,7.38-6.28,12.5,0,8.64,7.01,15.63,15.64,15.63s15.63-7,15.63-15.63c0-5.12-2.47-9.65-6.27-12.5"/><path class="cls-4" d="M150.58,124.28c2.33-3.1,3.73-6.96,3.73-11.14,0-10.25-8.3-18.55-18.55-18.55s-18.56,8.31-18.56,18.55c0,4.19,1.4,8.05,3.74,11.14-6.02,4.51-9.93,11.68-9.93,19.78,0,13.67,11.09,24.74,24.74,24.74s24.74-11.07,24.74-24.74c0-8.1-3.9-15.27-9.92-19.78"/><path class="cls-4" d="M77.49,98.51c1.86-2.47,2.97-5.54,2.97-8.87,0-8.16-6.61-14.77-14.76-14.77s-14.78,6.62-14.78,14.77c0,3.33,1.12,6.41,2.98,8.87-4.79,3.59-7.91,9.3-7.91,15.75,0,10.88,8.83,19.69,19.7,19.69s19.69-8.81,19.69-19.69c0-6.45-3.11-12.16-7.9-15.75"/><path class="cls-4" d="M197.64,102.42c.74-.99,1.19-2.22,1.19-3.55,0-3.27-2.65-5.92-5.91-5.92s-5.92,2.65-5.92,5.92c0,1.34,.45,2.57,1.19,3.55-1.92,1.44-3.17,3.73-3.17,6.31,0,4.36,3.54,7.89,7.89,7.89s7.89-3.53,7.89-7.89c0-2.58-1.24-4.87-3.16-6.31"/><path class="cls-4" d="M86.97,183.57c1.07-1.42,1.71-3.18,1.71-5.09,0-4.68-3.79-8.48-8.47-8.48s-8.48,3.8-8.48,8.48c0,1.91,.64,3.68,1.71,5.09-2.75,2.06-4.54,5.34-4.54,9.04,0,6.24,5.07,11.3,11.31,11.3s11.3-5.06,11.3-11.3c0-3.7-1.78-6.98-4.53-9.04"/><path class="cls-4" d="M127.5,62.91c1.1-1.46,1.76-3.27,1.76-5.24,0-4.82-3.9-8.73-8.72-8.73s-8.73,3.91-8.73,8.73c0,1.97,.66,3.78,1.76,5.24-2.83,2.12-4.67,5.49-4.67,9.3,0,6.43,5.21,11.63,11.64,11.63s11.63-5.21,11.63-11.63c0-3.81-1.84-7.18-4.67-9.3"/></g></g></svg>