<?xml version="1.0" encoding="UTF-8"?><svg id="Layer_2" xmlns="http://www.w3.org/2000/svg" viewBox="0 0 368.05 245.99"><defs><style>.cls-1{stroke-dasharray:0 0 0 0 .11 2.21 .11 2.21;}.cls-1,.cls-2,.cls-3,.cls-4,.cls-5,.cls-6,.cls-7,.cls-8{fill:none;stroke:#898989;stroke-linecap:round;stroke-miterlimit:10;stroke-width:1.11px;}.cls-9{letter-spacing:-.08em;}.cls-3{stroke-dasharray:0 0 0 0 .13 2.64 .13 2.64;}.cls-10{letter-spacing:0em;}.cls-11{letter-spacing:-.02em;}.cls-4{stroke-dasharray:0 0 0 0 0 0 .13 2.64 .13 2.64 .13 2.64;}.cls-12{letter-spacing:-.03em;}.cls-13{fill:#f47c64;}.cls-14{fill:#fcb31f;}.cls-15{fill:#28c2e5;}.cls-16{fill:#4ab862;}.cls-17{letter-spacing:0em;}.cls-5{stroke-dasharray:0 0 0 0 0 0 .11 2.21 .11 2.21 .11 2.21;}.cls-18{letter-spacing:-.01em;}.cls-19{letter-spacing:-.05em;}.cls-20{letter-spacing:0em;}.cls-6{stroke-dasharray:0 0 0 0 .11 2.22 .11 2.22;}.cls-21{letter-spacing:-.04em;}.cls-22{letter-spacing:-.08em;}.cls-7{stroke-dasharray:0 0 0 0 0 0 .11 2.22 .11 2.22 .11 2.22;}.cls-23{fill:#515251;}.cls-23,.cls-24{font-family:SofiaPro-Bold, 'Sofia Pro';font-size:8.23px;}.cls-24{fill:#fff;}.cls-8{stroke-dasharray:0 0 0 0 0 0 .11 2.22 .11 2.22 .11 2.22;}.cls-25{letter-spacing:-.01em;}.cls-26{letter-spacing:0em;}.cls-27{letter-spacing:0em;}.cls-28{letter-spacing:-.03em;}.cls-29{letter-spacing:-.03em;}</style></defs><g id="lottie_designs"><g><polygon class="cls-15" points="178.92 79.57 91.39 79.57 135.15 .13 178.92 79.57"/><text class="cls-24" transform="translate(125 59.03)"><tspan x="0" y="0">HIGH </tspan><tspan x="-19.93" y="7.31">PER</tspan><tspan class="cls-25" x="-4.88" y="7.31">F</tspan><tspan x="-.54" y="7.31">ORMANCE </tspan><tspan x="-7.35" y="14.63">CU</tspan><tspan class="cls-9" x="4.01" y="14.63">L</tspan><tspan x="7.5" y="14.63">TURE</tspan></text><polygon class="cls-16" points="209.99 135.97 60.31 135.97 90.1 81.91 180.21 81.91 209.99 135.97"/><text class="cls-24" transform="translate(91.25 112.9)"><tspan class="cls-17" x="0" y="0">C</tspan><tspan class="cls-19" x="5.69" y="0">Y</tspan><tspan x="10.81" y="0">CE</tspan><tspan class="cls-28" x="21.3" y="0">L</tspan><tspan x="25.18" y="0" xml:space="preserve"> O</tspan><tspan class="cls-29" x="33.6" y="0">F</tspan><tspan x="37.84" y="0" xml:space="preserve"> LEADERSHI</tspan><tspan class="cls-12" x="82.96" y="0">P</tspan></text><polygon class="cls-14" points="241.06 192.36 29.25 192.36 59.03 138.31 211.28 138.31 241.06 192.36"/><text class="cls-24" transform="translate(57.47 168.77)"><tspan x="0" y="0">SI</tspan><tspan class="cls-20" x="7.31" y="0">X</tspan><tspan x="12.61" y="0" xml:space="preserve"> PR</tspan><tspan class="cls-18" x="24.89" y="0">A</tspan><tspan x="30.17" y="0">CTICES O</tspan><tspan class="cls-29" x="66.74" y="0">F</tspan><tspan x="70.99" y="0" xml:space="preserve"> HIGH PER</tspan><tspan class="cls-25" x="110.25" y="0">F</tspan><tspan x="114.6" y="0">ORMANCE</tspan></text><polygon class="cls-13" points="270.31 245.44 0 245.44 27.95 194.7 242.35 194.7 270.31 245.44"/><text class="cls-24" transform="translate(68.54 223.11)"><tspan x="0" y="0">D</tspan><tspan class="cls-10" x="5.86" y="0">O</tspan><tspan x="12.29" y="0">MAINS O</tspan><tspan class="cls-29" x="46.62" y="0">F</tspan><tspan x="50.87" y="0" xml:space="preserve"> HUMAN EXPERIENCE</tspan></text><g><line class="cls-2" x1="276.57" y1="245.44" x2="276.62" y2="245.44"/><line class="cls-3" x1="279.26" y1="245.44" x2="283.48" y2="245.44"/><line class="cls-4" x1="284.8" y1="245.44" x2="291.78" y2="245.44"/><polyline class="cls-2" points="293.1 245.44 293.16 245.44 293.16 245.38"/><line class="cls-6" x1="293.16" y1="243.16" x2="293.16" y2="239.61"/><line class="cls-7" x1="293.16" y1="238.5" x2="293.16" y2="1.72"/><polyline class="cls-2" points="293.16 .61 293.16 .55 293.1 .55"/><line class="cls-1" x1="290.89" y1=".55" x2="287.36" y2=".55"/><line class="cls-5" x1="286.26" y1=".55" x2="141.42" y2=".55"/><line class="cls-2" x1="140.32" y1=".55" x2="140.27" y2=".55"/></g><line class="cls-8" x1="183.8" y1="79.57" x2="293.16" y2="79.57"/><line class="cls-8" x1="216.71" y1="135.97" x2="293.16" y2="135.97"/><line class="cls-8" x1="246.32" y1="192.36" x2="293.16" y2="192.36"/><text class="cls-23" transform="translate(297.89 42.84)"><tspan class="cls-10" x="0" y="0">C</tspan><tspan x="5.74" y="0">ultu</tspan><tspan class="cls-18" x="20.44" y="0">r</tspan><tspan x="23.73" y="0">e</tspan></text><text class="cls-23" transform="translate(297.89 113.32)"><tspan class="cls-22" x="0" y="0">T</tspan><tspan x="3.91" y="0">eam/</tspan><tspan class="cls-21" x="24.75" y="0">F</tspan><tspan x="28.87" y="0">amil</tspan><tspan class="cls-27" x="45.42" y="0">y</tspan></text><text class="cls-23" transform="translate(297.89 169.06)"><tspan class="cls-11" x="0" y="0">R</tspan><tspan x="5.04" y="0">elationship</tspan></text><text class="cls-23" transform="translate(297.89 223.22)"><tspan class="cls-26" x="0" y="0">I</tspan><tspan x="2.49" y="0">ndividual</tspan></text></g></g></svg>