<?xml version="1.0" encoding="UTF-8"?><svg id="Layer_2" xmlns="http://www.w3.org/2000/svg" viewBox="0 0 332.37 336.28"><defs><style>.cls-1{fill:#f47c64;}.cls-2{fill:#fcb31f;}.cls-3{fill:#28c2e5;}.cls-4{fill:#515251;}.cls-5{font-size:19.94px;}.cls-5,.cls-6,.cls-7,.cls-8,.cls-9,.cls-10{fill:#fff;font-family:SofiaPro-Bold, 'Sofia Pro';}.cls-6{font-size:35.6px;}.cls-7{font-size:41.51px;}.cls-8{font-size:42.67px;}.cls-9{font-size:12.82px;}.cls-10{font-size:12.82px;}</style></defs><g id="lottie_designs"><g><g><path class="cls-3" d="M313.07,227.51c-26.14,46.92-76.25,78.65-133.78,78.65s-107.4-31.58-133.6-78.32l133.6-79.74v-.44l133.78,79.86Z"/><path class="cls-2" d="M332.37,153.08c0,27.01-6.99,52.4-19.29,74.43l-133.78-79.86V0c84.54,0,153.08,68.54,153.08,153.08Z"/><path class="cls-1" d="M179.29,0V148.09L45.69,227.84c-12.42-22.11-19.48-47.62-19.48-74.76C26.21,68.54,94.75,0,179.29,0Z"/></g><circle class="cls-4" cx="179.29" cy="153.08" r="67.64"/><text class="cls-6" transform="translate(80.99 184.86) rotate(-104.82)"><tspan x="0" y="0">I</tspan></text><text class="cls-6" transform="translate(77.84 175.34) rotate(-95.61)"><tspan x="0" y="0">N</tspan></text><text class="cls-6" transform="translate(75.69 152.29) rotate(-84.07)"><tspan x="0" y="0">T</tspan></text><text class="cls-6" transform="translate(77.52 133.51) rotate(-73.51)"><tspan x="0" y="0">E</tspan></text><text class="cls-6" transform="translate(83.06 114.88) rotate(-63.39)"><tspan x="0" y="0">L</tspan></text><text class="cls-6" transform="translate(90.58 99.67) rotate(-53.92)"><tspan x="0" y="0">L</tspan></text><text class="cls-6" transform="translate(100.41 85.85) rotate(-43.88)"><tspan x="0" y="0">E</tspan></text><text class="cls-6" transform="translate(113.7 72.52) rotate(-32.34)"><tspan x="0" y="0">C</tspan></text><text class="cls-6" transform="translate(133.83 59.94) rotate(-20.51)"><tspan x="0" y="0">T</tspan></text><text class="cls-10" transform="translate(99.9 157.44) rotate(-90.46)"><tspan x="0" y="0">S</tspan></text><text class="cls-10" transform="translate(99.9 150.14) rotate(-86.49)"><tspan x="0" y="0">I</tspan></text><text class="cls-10" transform="translate(100.09 146.35) rotate(-82.86)"><tspan x="0" y="0">L</tspan></text><text class="cls-10" transform="translate(100.84 140.1) rotate(-78.02)"><tspan x="0" y="0">E</tspan></text><text class="cls-10" transform="translate(102.28 133.09) rotate(-72.37)"><tspan x="0" y="0">N</tspan></text><text class="cls-10" transform="translate(104.84 124.99) rotate(-66.14)"><tspan x="0" y="0">C</tspan></text><text class="cls-10" transform="translate(108.41 116.99) rotate(-60.36)"><tspan x="0" y="0">E</tspan></text><text class="cls-10" transform="translate(112.03 110.76) rotate(-56.68)"><tspan x="0" y="0"> </tspan></text><text class="cls-10" transform="translate(113.5 108.25) rotate(-52.04)"><tspan x="0" y="0">O</tspan></text><text class="cls-10" transform="translate(119.57 100.55) rotate(-45.76)"><tspan x="0" y="0">P</tspan></text><text class="cls-10" transform="translate(124.97 95.01) rotate(-40.47)"><tspan x="0" y="0">E</tspan></text><text class="cls-10" transform="translate(130.39 90.33) rotate(-34.84)"><tspan x="0" y="0">N</tspan></text><text class="cls-9" transform="translate(210.81 79.99) rotate(26.34)"><tspan x="0" y="0">B</tspan></text><text class="cls-9" transform="translate(217.93 83.5) rotate(32.03)"><tspan x="0" y="0">R</tspan></text><text class="cls-9" transform="translate(224.68 87.74) rotate(37.45)"><tspan x="0" y="0">E</tspan></text><text class="cls-9" transform="translate(230.38 92.06) rotate(42.95)"><tspan x="0" y="0">A</tspan></text><text class="cls-9" transform="translate(235.84 97.13) rotate(47.87)"><tspan x="0" y="0">T</tspan></text><text class="cls-9" transform="translate(240.56 102.26) rotate(53.58)"><tspan x="0" y="0">H</tspan></text><text class="cls-9" transform="translate(245.72 109.43) rotate(57.83)"><tspan x="0" y="0"> </tspan></text><text class="cls-9" transform="translate(247.35 111.85) rotate(61.71)"><tspan x="0" y="0">P</tspan></text><text class="cls-9" transform="translate(251.02 118.63) rotate(67.4)"><tspan x="0" y="0">R</tspan></text><text class="cls-9" transform="translate(254.06 125.95) rotate(72.84)"><tspan x="0" y="0">E</tspan></text><text class="cls-9" transform="translate(256.19 132.82) rotate(78.03)"><tspan x="0" y="0">S</tspan></text><text class="cls-9" transform="translate(257.7 139.91) rotate(83.13)"><tspan x="0" y="0">E</tspan></text><text class="cls-9" transform="translate(258.6 147.01) rotate(88.78)"><tspan x="0" y="0">N</tspan></text><text class="cls-9" transform="translate(258.75 155.56) rotate(94.4)"><tspan x="0" y="0">T</tspan></text><text class="cls-10" transform="translate(105.93 207.29) rotate(50.97)"><tspan x="0" y="0">A</tspan></text><text class="cls-10" transform="translate(111.48 214.13) rotate(45.22)"><tspan x="0" y="0">C</tspan></text><text class="cls-10" transform="translate(118.17 220.83) rotate(39.23)"><tspan x="0" y="0">C</tspan></text><text class="cls-10" transform="translate(125.59 226.81) rotate(33.71)"><tspan x="0" y="0">E</tspan></text><text class="cls-10" transform="translate(132.12 231.15) rotate(28.58)"><tspan x="0" y="0">P</tspan></text><text class="cls-10" transform="translate(139.52 235.14) rotate(23.56)"><tspan x="0" y="0">T</tspan></text><text class="cls-10" transform="translate(145.82 237.92) rotate(18.94)"><tspan x="0" y="0">A</tspan></text><text class="cls-10" transform="translate(154.28 240.81) rotate(13.23)"><tspan x="0" y="0">N</tspan></text><text class="cls-10" transform="translate(163.39 242.93) rotate(7.26)"><tspan x="0" y="0">C</tspan></text><text class="cls-10" transform="translate(172.84 244.06) rotate(1.75)"><tspan x="0" y="0">E</tspan></text><text class="cls-10" transform="translate(180.52 244.22) rotate(-1.76)"><tspan x="0" y="0"> </tspan></text><text class="cls-10" transform="translate(183.96 244.21) rotate(-5.8)"><tspan x="0" y="0">C</tspan></text><text class="cls-10" transform="translate(193.42 243.24) rotate(-12.13)"><tspan x="0" y="0">O</tspan></text><text class="cls-10" transform="translate(203.84 240.94) rotate(-18.39)"><tspan x="0" y="0">N</tspan></text><text class="cls-10" transform="translate(212.68 237.96) rotate(-24.22)"><tspan x="0" y="0">N</tspan></text><text class="cls-10" transform="translate(221.12 234.11) rotate(-29.58)"><tspan x="0" y="0">E</tspan></text><text class="cls-10" transform="translate(227.81 230.33) rotate(-34.9)"><tspan x="0" y="0">C</tspan></text><text class="cls-10" transform="translate(235.56 224.84) rotate(-40.3)"><tspan x="0" y="0">T</tspan></text><text class="cls-10" transform="translate(241.38 219.89) rotate(-45.18)"><tspan x="0" y="0">E</tspan></text><text class="cls-10" transform="translate(246.95 214.3) rotate(-50.73)"><tspan x="0" y="0">D</tspan></text><text class="cls-7" transform="translate(82.28 244.99) rotate(41.41)"><tspan x="0" y="0">E</tspan></text><text class="cls-7" transform="translate(103.83 264.36) rotate(25.85)"><tspan x="0" y="0">M</tspan></text><text class="cls-7" transform="translate(143.83 282.35) rotate(8.39)"><tspan x="0" y="0">O</tspan></text><text class="cls-7" transform="translate(179.31 286.64) rotate(-5.06)"><tspan x="0" y="0">T</tspan></text><text class="cls-7" transform="translate(205.15 283.72) rotate(-14)"><tspan x="0" y="0">I</tspan></text><text class="cls-7" transform="translate(221.21 280.35) rotate(-25.22)"><tspan x="0" y="0">O</tspan></text><text class="cls-7" transform="translate(254.63 263.6) rotate(-40.31)"><tspan x="0" y="0">N</tspan></text><text class="cls-8" transform="translate(228.76 65.46) rotate(37.2)"><tspan x="0" y="0">B</tspan></text><text class="cls-8" transform="translate(249.48 80.3) rotate(53.44)"><tspan x="0" y="0">O</tspan></text><text class="cls-8" transform="translate(268.33 105.62) rotate(70.65)"><tspan x="0" y="0">D</tspan></text><text class="cls-8" transform="translate(277.55 130.9) rotate(85.35)"><tspan x="0" y="0">Y</tspan></text><text class="cls-5" transform="translate(135.65 141.68)"><tspan x="0" y="0">PURPOSE</tspan><tspan x="7.66" y="19.94">CENTER</tspan><tspan x="-.85" y="39.87">MEANING</tspan></text></g></g></svg>