<?xml version="1.0" encoding="UTF-8"?><svg id="Layer_2" xmlns="http://www.w3.org/2000/svg" viewBox="0 0 446.79 313.09"><defs><style>.cls-1{letter-spacing:-.01em;}.cls-2{letter-spacing:0em;}.cls-3{stroke:#d1d1d1;stroke-miterlimit:10;stroke-width:2.93px;}.cls-3,.cls-4{fill:#fff;}.cls-5{fill:#f48336;}.cls-6{fill:#f47c64;}.cls-7{fill:#fcb31f;}.cls-8{fill:#d1d1d1;}.cls-9{fill:#c64234;}.cls-10{fill:#28c2e5;}.cls-11{fill:#4ab862;}.cls-12{fill:#4b5eaa;}.cls-13{letter-spacing:0em;}.cls-14{letter-spacing:-.01em;}.cls-15{letter-spacing:0em;}.cls-16{letter-spacing:0em;}.cls-17{letter-spacing:0em;}.cls-18{letter-spacing:0em;}.cls-19{letter-spacing:-.02em;}.cls-20{letter-spacing:0em;}.cls-21{fill:#515251;}.cls-21,.cls-4{font-family:SofiaPro-Bold, 'Sofia Pro';font-size:10.24px;}.cls-22{letter-spacing:-.02em;}</style></defs><g id="lottie_designs"><g><g><rect class="cls-12" x="328.29" width="98.75" height="46.82" rx="5.39" ry="5.39"/><text class="cls-4" transform="translate(344.91 26.81)"><tspan class="cls-1" x="0" y="0">N</tspan><tspan class="cls-16" x="6.88" y="0">e</tspan><tspan class="cls-1" x="12.58" y="0">w</tspan><tspan x="20.26" y="0"> </tspan><tspan class="cls-13" x="22.69" y="0">L</tspan><tspan x="27.76" y="0">earning</tspan></text></g><g><rect class="cls-10" x="119.82" width="98.75" height="46.82" rx="5.39" ry="5.39"/><text class="cls-4" transform="translate(141.21 26.81)"><tspan class="cls-1" x="0" y="0">N</tspan><tspan class="cls-16" x="6.88" y="0">e</tspan><tspan class="cls-1" x="12.58" y="0">w</tspan><tspan x="20.26" y="0" xml:space="preserve"> Choi</tspan><tspan class="cls-13" x="44.42" y="0">c</tspan><tspan x="49.63" y="0">e</tspan></text></g><text class="cls-21" transform="translate(130.77 309.91)"><tspan x="0" y="0">Owne</tspan><tspan class="cls-16" x="27.55" y="0">r</tspan><tspan x="31.7" y="0">ship</tspan></text><text class="cls-21" transform="translate(7.1 52.68)"><tspan x="0" y="0">Choose Of</tspan><tspan class="cls-13" x="49.66" y="0">t</tspan><tspan x="53.25" y="0">en, </tspan><tspan x="8.27" y="10.24">Choose </tspan><tspan class="cls-1" x="46.16" y="10.24">U</tspan><tspan x="53.02" y="10.24">p</tspan></text><text class="cls-21" transform="translate(319.05 233.1)"><tspan class="cls-20" x="0" y="0">B</tspan><tspan x="6.49" y="0">lame</tspan></text><text class="cls-21" transform="translate(387.78 233.1)"><tspan class="cls-1" x="0" y="0">N</tspan><tspan x="6.88" y="0">o </tspan><tspan class="cls-13" x="15.22" y="0">L</tspan><tspan x="20.29" y="0">earning</tspan></text><g><rect class="cls-9" x="328.29" y="244.33" width="98.75" height="46.82" rx="5.39" ry="5.39"/><text class="cls-4" transform="translate(349.16 261.63)"><tspan class="cls-22" x="0" y="0">R</tspan><tspan x="6.28" y="0">ese</tspan><tspan class="cls-15" x="22.57" y="0">n</tspan><tspan x="28.47" y="0">tme</tspan><tspan class="cls-15" x="46.85" y="0">n</tspan><tspan x="52.75" y="0">t</tspan><tspan class="cls-2" x="8.64" y="10.24">M</tspan><tspan x="18.09" y="10.24">i</tspan><tspan class="cls-18" x="20.78" y="10.24">s</tspan><tspan x="25.51" y="10.24">tru</tspan><tspan class="cls-2" x="39.38" y="10.24">s</tspan><tspan x="44.11" y="10.24">t</tspan><tspan class="cls-1" x="3.96" y="20.48">I</tspan><tspan x="7" y="20.48">gno</tspan><tspan class="cls-14" x="25.15" y="20.48">r</tspan><tspan x="29.25" y="20.48">an</tspan><tspan class="cls-13" x="41.49" y="20.48">c</tspan><tspan x="46.71" y="20.48">e</tspan></text></g><g><g><circle class="cls-6" cx="228.63" cy="124.27" r="43.89"/><text class="cls-4" transform="translate(212.88 126.53)"><tspan x="0" y="0">Choi</tspan><tspan class="cls-13" x="21.72" y="0">c</tspan><tspan x="26.93" y="0">e</tspan></text></g><g><circle class="cls-5" cx="228.63" cy="267.57" r="43.89"/><text class="cls-4" transform="translate(212.29 270.64)"><tspan class="cls-22" x="0" y="0">R</tspan><tspan x="6.28" y="0">esul</tspan><tspan class="cls-20" x="25.46" y="0">t</tspan><tspan x="29.1" y="0">s</tspan></text></g><g><circle class="cls-11" cx="86.14" cy="124.27" r="43.89"/><text class="cls-4" transform="translate(60.03 126.53)"><tspan class="cls-19" x="0" y="0">A</tspan><tspan class="cls-16" x="6.52" y="0">w</tspan><tspan x="14.24" y="0">a</tspan><tspan class="cls-14" x="20.52" y="0">r</tspan><tspan x="24.62" y="0">eness</tspan></text></g><g><circle class="cls-7" cx="86.14" cy="267.57" r="43.89"/><text class="cls-4" transform="translate(51.9 270.64)"><tspan class="cls-2" x="0" y="0">A</tspan><tspan class="cls-17" x="6.66" y="0">cc</tspan><tspan x="17.08" y="0">ou</tspan><tspan class="cls-15" x="28.94" y="0">n</tspan><tspan class="cls-13" x="34.84" y="0">t</tspan><tspan x="38.43" y="0">abilit</tspan><tspan class="cls-1" x="62.77" y="0">y</tspan></text></g></g><g><path class="cls-8" d="M236.47,216.3l6.57-8.37-3.15-.45c1.73-11.01,1.25-22.42-1.42-33.22l-3.33,.82c2.57,10.38,3.02,21.34,1.36,31.92l-3.98-.57,3.97,9.87Z"/><path class="cls-8" d="M179.59,116.89l-8.37-6.57-.45,3.15c-11.02-1.73-22.42-1.25-33.23,1.42l.83,3.33c10.38-2.57,21.34-3.02,31.92-1.36l-.57,3.98,9.87-3.97Z"/><path class="cls-8" d="M177.23,276.94l-.83-3.33c-10.38,2.57-21.34,3.02-31.92,1.36l.57-3.98-9.87,3.97,8.37,6.57,.45-3.15c11.01,1.73,22.42,1.25,33.23-1.42Z"/><path class="cls-8" d="M78.29,184.85l3.98,.57-3.97-9.87-6.57,8.37,3.15,.45c-1.73,11.01-1.25,22.42,1.42,33.22l3.33-.82c-2.57-10.38-3.02-21.34-1.35-31.92Z"/></g><path class="cls-8" d="M117.37,45.55l-10.56,1.34,1.93,2.54c-8.97,6.62-16.66,15.07-22.35,24.63l2.95,1.76c5.47-9.18,12.85-17.3,21.47-23.65l2.43,3.2,4.12-9.81Z"/><g><line class="cls-3" x1="223.69" y1="24.64" x2="315.86" y2="24.64"/><polygon class="cls-8" points="324.21 24.61 314.24 19.75 314.24 29.46 324.21 24.61"/></g><g><line class="cls-3" x1="277.03" y1="266.31" x2="311.81" y2="266.31"/><polygon class="cls-8" points="320.97 266.27 311.01 261.42 311.01 271.13 320.97 266.27"/></g></g></g></svg>